<svg xmlns="http://www.w3.org/2000/svg" width="232.46" height="89.395" viewBox="0 0 232.46 89.395">
  <g id="Grupo_935" data-name="Grupo 935" transform="translate(-2859.08 603.727)">
    <g id="Grupo_934" data-name="Grupo 934" transform="translate(2802.584 -643.568)">
      <text id="Cali" transform="translate(271.147 112.034)" fill="#fff" font-size="8" font-family="GaramondPremrPro-Smbd, Garamond Premier Pro"><tspan x="0" y="0">Cali</tspan></text>
      <g id="Grupo_724" data-name="Grupo 724" transform="translate(157.701 70.388)">
        <path id="Trazado_365" data-name="Trazado 365" d="M262.742,459.592a.69.69,0,0,0-.393.123.875.875,0,0,0-.124.519c-.015.28-.015,1.983-.028,3.532,0,1.235.028,2.324.028,2.663.013.87.11,1.008.829,1.211.258.068.354.15.354.271s-.244.164-.436.164c-.353,0-.9-.054-1.493-.054-.4,0-.981.054-1.387.054-.26,0-.421-.066-.421-.2,0-.1.162-.178.3-.217.733-.163.895-.424.923-.993.043-.653.069-1.726.069-2.405,0-.448-.013-3.357-.041-3.779-.013-.492-.013-.694-.773-.8-.26-.029-.394-.123-.394-.2,0-.109.119-.163.3-.176.1-.013.327-.013.448-.013.613,0,1.687-.11,2.341-.11a3.553,3.553,0,0,1,2.581.8,2.7,2.7,0,0,1-.135,3.941,2.746,2.746,0,0,1-1.578.6,2.978,2.978,0,0,1-.735-.1c-.148-.067-.23-.149-.23-.231,0-.053.067-.122.177-.122h.3c.693,0,1.671-.653,1.671-2.175a2.221,2.221,0,0,0-2.147-2.3" transform="translate(-259.67 -458.329)" fill="#fff"/>
        <path id="Trazado_366" data-name="Trazado 366" d="M270.462,464.181a2.57,2.57,0,0,0-.627,1.766,3.768,3.768,0,0,0,.163,1.225,1.921,1.921,0,0,0,1.7,1.481,1.208,1.208,0,0,0,.775-.425,3.071,3.071,0,0,0,.584-1.8,3.313,3.313,0,0,0-.64-2.082,1.659,1.659,0,0,0-1.114-.529,1.4,1.4,0,0,0-.843.368m3.86,2a2.859,2.859,0,0,1-2.922,2.882,2.915,2.915,0,0,1-2.829-2.787,2.643,2.643,0,0,1,.954-2.121,3.062,3.062,0,0,1,2.039-.76,2.763,2.763,0,0,1,2.757,2.786" transform="translate(-261.546 -459.219)" fill="#fff"/>
        <path id="Trazado_367" data-name="Trazado 367" d="M277.372,463.759a5.9,5.9,0,0,0,.953-.4.935.935,0,0,1,.365-.162c.054,0,.124.15.124.2,0,.2-.043.541-.043.667,0,.067.082.039.082.039a3.553,3.553,0,0,1,1.809-.748,1.568,1.568,0,0,1,1.236.518,2.573,2.573,0,0,1,.477,1.659c0,.272.026,2.283.04,2.472.026.207.162.381.5.478.258.068.339.15.339.231s-.187.165-.394.165c-.324,0-.68-.028-1.06-.028-.338,0-.788.028-.966.028-.149,0-.341-.043-.341-.165,0-.1.152-.178.33-.231.311-.122.393-.246.422-.693s.026-2.093.026-2.489a1.424,1.424,0,0,0-.369-.965,1.685,1.685,0,0,0-.856-.258,1.62,1.62,0,0,0-1.14.394.56.56,0,0,0-.137.328c-.012.176,0,3.1.014,3.26.016.19.068.3.493.423.134.039.243.135.243.218s-.152.163-.354.163c-.176,0-.585-.013-.871-.013-.5,0-.924.039-1.153.039-.205,0-.354-.07-.354-.189,0-.095.137-.164.285-.2.447-.136.515-.273.559-.762.039-.409.081-1.578.081-2.952,0-.148-.054-.286-.341-.53-.176-.134-.229-.187-.229-.231,0-.094.133-.229.229-.27" transform="translate(-263.279 -459.179)" fill="#fff"/>
        <path id="Trazado_368" data-name="Trazado 368" d="M289.151,463.33c.028,0,.149.067.163.122a4.941,4.941,0,0,1,.042.517c0,.134-.259.163-.354.163h-1.455a.135.135,0,0,0-.108.095c-.027.354-.04,2.2-.04,2.882a.845.845,0,0,0,.243.665,1.151,1.151,0,0,0,.791.256,1.454,1.454,0,0,0,.652-.2.425.425,0,0,1,.216-.08s.069.026.069.148a.577.577,0,0,1-.189.354,2.026,2.026,0,0,1-1.47.612,1.52,1.52,0,0,1-1.223-.627,1.6,1.6,0,0,1-.176-.909c0-.5.056-2.543.056-3.019,0-.093-.247-.192-.531-.257-.108-.042-.176-.124-.176-.179a.187.187,0,0,1,.082-.148,7.544,7.544,0,0,0,1.155-.965c.163-.177.257-.3.313-.3a.32.32,0,0,1,.2.164v.651a.147.147,0,0,0,.122.109c.3,0,1.564-.054,1.618-.054" transform="translate(-265.149 -459.022)" fill="#fff"/>
        <path id="Trazado_369" data-name="Trazado 369" d="M293.076,460.584a.753.753,0,0,1-.68.692.823.823,0,0,1-.462-.175.742.742,0,0,1-.218-.517.845.845,0,0,1,.177-.5.872.872,0,0,1,.571-.205c.394,0,.612.449.612.708m-1.618,2.487a13.965,13.965,0,0,0,1.413-.463c.069,0,.136.123.136.151-.013.2-.08,2-.08,2.773,0,.693.013,1.237.026,1.713.013.421.287.462.628.571.214.069.3.15.3.231s-.175.148-.339.148c-.095,0-.775-.039-1.064-.039-.446,0-.95.053-1.192.053-.2,0-.356-.068-.356-.163s.1-.149.329-.2a.787.787,0,0,0,.543-.394,14.807,14.807,0,0,0,.056-1.55c0-.084.013-1.766-.015-1.929-.013-.095-.164-.22-.545-.489-.081-.069-.12-.125-.12-.163,0-.1.135-.205.284-.246" transform="translate(-266.259 -458.478)" fill="#fff"/>
        <path id="Trazado_370" data-name="Trazado 370" d="M298.751,462.467a4.5,4.5,0,0,0,1.713-.177,1.789,1.789,0,0,1,.422-.081c.094,0,.052.368.052,1.155,0,2.461-.013,3.031.03,3.588.025.285.176.35.569.476.272.1.3.137.3.231s-.164.162-.327.162c-.3,0-.733-.039-1.072-.039-.463,0-.872.053-1.171.053-.148,0-.271-.04-.271-.163,0-.081.082-.135.3-.23.337-.139.474-.26.49-.489.04-.856.054-3.046.054-3.63a.281.281,0,0,0-.165-.2,16.719,16.719,0,0,0-2.2,0,.211.211,0,0,0-.135.177c0,.392,0,2.715.04,3.451.027.433.082.5.693.694.219.069.286.133.286.218,0,.068-.1.162-.3.162-.233,0-.842-.039-1.279-.039-.475,0-.976.067-1.155.067s-.271-.082-.271-.164.1-.162.271-.2c.462-.137.533-.23.586-.695.026-.3.026-2.461.026-3.452,0-.039-.066-.163-.134-.178-.19-.024-.313-.038-.492-.052-.065,0-.12-.1-.1-.152.013-.12.189-.244.609-.461.07-.054.136-.122.136-.189a5.072,5.072,0,0,1,.381-2.025,3.947,3.947,0,0,1,1.21-1.538,2.934,2.934,0,0,1,1.754-.638,1.664,1.664,0,0,1,1.44.6.5.5,0,0,1,.121.341c0,.326-.529.68-.7.68a1.417,1.417,0,0,1-.529-.409,1.7,1.7,0,0,0-1.142-.516.98.98,0,0,0-.818.384c-.312.365-.61,1.3-.61,3.139a.179.179,0,0,0,.176.133c.205.014,1.116.014,1.222.014" transform="translate(-267.192 -458.104)" fill="#fff"/>
        <path id="Trazado_371" data-name="Trazado 371" d="M308.846,463.758a.635.635,0,0,1,.205.436c0,.218-.407.556-.461.556a1.143,1.143,0,0,1-.545-.271c-.436-.313-.682-.545-1.14-.545a1.277,1.277,0,0,0-.791.421,2.487,2.487,0,0,0-.556,1.605,2.276,2.276,0,0,0,.382,1.36,1.891,1.891,0,0,0,1.658.87,2.116,2.116,0,0,0,1.222-.408c.135-.094.246-.056.246.014a.6.6,0,0,1-.19.407,2.789,2.789,0,0,1-1.985.857,2.416,2.416,0,0,1-2.026-1.088,3.238,3.238,0,0,1-.435-1.59,2.78,2.78,0,0,1,1.332-2.349,3.789,3.789,0,0,1,1.795-.573,2.655,2.655,0,0,1,1.29.3" transform="translate(-269.106 -459.233)" fill="#fff"/>
        <path id="Trazado_372" data-name="Trazado 372" d="M313.311,460.584a.752.752,0,0,1-.678.692.838.838,0,0,1-.463-.175.749.749,0,0,1-.216-.517.838.838,0,0,1,.176-.5.869.869,0,0,1,.573-.205c.392,0,.608.449.608.708m-1.615,2.487a14.285,14.285,0,0,0,1.413-.463c.068,0,.135.123.135.151-.013.2-.08,2-.08,2.773,0,.693.013,1.237.027,1.713.014.421.285.462.624.571.218.069.3.15.3.231s-.174.148-.338.148c-.1,0-.776-.039-1.058-.039-.449,0-.953.053-1.2.053-.205,0-.354-.068-.354-.163s.094-.149.324-.2a.791.791,0,0,0,.546-.394,15.187,15.187,0,0,0,.054-1.55c0-.084.014-1.766-.013-1.929-.012-.095-.163-.22-.544-.489-.082-.069-.122-.125-.122-.163,0-.1.137-.205.286-.246" transform="translate(-270.526 -458.478)" fill="#fff"/>
        <path id="Trazado_373" data-name="Trazado 373" d="M318.424,468.082c.084-.041.15-.287.164-.326.013-.286.028-.776.028-1.09,0-.041-.056-.11-.1-.11a3.581,3.581,0,0,0-1.347.41c-.15.083-.258.177-.258.517a.822.822,0,0,0,.815.813,1.524,1.524,0,0,0,.694-.215m.977-4.023a1.768,1.768,0,0,1,.287,1.141c0,.528-.054,2.214-.054,2.364,0,.571.393.652.53.652a2.122,2.122,0,0,0,.515-.2c.041-.014.054,0,.082.039a.343.343,0,0,1,.028.152,1.408,1.408,0,0,1-1.265.855.9.9,0,0,1-.882-.666c-.016-.026-.069-.067-.1-.055a6,6,0,0,1-1.2.612,2.267,2.267,0,0,1-.554.079c-.492,0-.968-.582-.968-1.274a1.039,1.039,0,0,1,.8-1.034c.219-.1,1.335-.395,1.631-.49s.367-.159.367-.245c.016-.122.043-.938.028-1.1a1.017,1.017,0,0,0-1.035-.9.953.953,0,0,0-.53.136c-.068.043-.107.258-.095.574a.25.25,0,0,1-.069.133,5.278,5.278,0,0,1-.951.477c-.081,0-.162-.107-.162-.189,0-.381.368-.76,1.046-1.209a2.956,2.956,0,0,1,1.28-.516,1.422,1.422,0,0,1,1.26.666" transform="translate(-271.506 -459.219)" fill="#fff"/>
        <path id="Trazado_374" data-name="Trazado 374" d="M326.477,459.275c.57,0,.951.041,1.454.041s1.06-.028,1.359-.028c.257,0,.407.055.407.163s-.135.189-.393.246c-.491.095-.736.245-.816.789-.054.447-.054,1.833-.054,3.764a3.274,3.274,0,0,0,.776,2.582,2.88,2.88,0,0,0,1.889.708,2.394,2.394,0,0,0,2.513-1.877,22.627,22.627,0,0,0,.233-5.136c-.04-.5-.162-.7-.9-.871-.136-.028-.312-.135-.312-.23s.094-.151.339-.151c.327,0,.733.041,1.169.041.558,0,.855-.028,1.235-.028.221,0,.341.055.341.163,0,.083-.12.164-.311.233-.6.176-.87.407-.884,1.249-.014.612-.094,2.137-.123,2.842-.081,2.366-.735,3.493-1.7,4.048a3.944,3.944,0,0,1-1.946.424,3.808,3.808,0,0,1-2.473-.8c-.761-.72-1.1-1.687-1.1-3.943,0-1.765-.028-3.056-.04-3.233-.031-.26-.22-.476-.736-.584-.162-.043-.312-.124-.312-.246s.163-.162.382-.162" transform="translate(-273.673 -458.351)" fill="#fff"/>
        <path id="Trazado_375" data-name="Trazado 375" d="M338.615,463.759a5.95,5.95,0,0,0,.953-.4.971.971,0,0,1,.368-.162c.053,0,.122.15.122.2,0,.2-.041.541-.041.667,0,.067.081.039.081.039a3.545,3.545,0,0,1,1.807-.748,1.567,1.567,0,0,1,1.236.518,2.583,2.583,0,0,1,.477,1.659c0,.272.026,2.283.039,2.472.028.207.166.381.506.478.257.068.337.15.337.231s-.189.165-.393.165c-.327,0-.679-.028-1.06-.028-.341,0-.788.028-.963.028-.152,0-.341-.043-.341-.165,0-.1.151-.178.326-.231.311-.122.394-.246.422-.693s.026-2.093.026-2.489a1.435,1.435,0,0,0-.368-.965,1.7,1.7,0,0,0-.855-.258,1.629,1.629,0,0,0-1.144.394.569.569,0,0,0-.135.328c-.014.176,0,3.1.014,3.26.013.19.067.3.488.423.137.039.245.135.245.218s-.149.163-.355.163c-.175,0-.583-.013-.87-.013-.5,0-.924.039-1.154.039-.2,0-.354-.07-.354-.189,0-.095.133-.164.284-.2.451-.136.519-.273.558-.762.041-.409.082-1.578.082-2.952,0-.148-.056-.286-.341-.53-.176-.134-.23-.187-.23-.231,0-.094.138-.229.23-.27" transform="translate(-276.189 -459.179)" fill="#fff"/>
        <path id="Trazado_376" data-name="Trazado 376" d="M349.256,460.584a.754.754,0,0,1-.68.692.842.842,0,0,1-.463-.175.741.741,0,0,1-.215-.517.834.834,0,0,1,.177-.5.861.861,0,0,1,.569-.205c.4,0,.613.449.613.708m-1.619,2.487a14.09,14.09,0,0,0,1.414-.463c.069,0,.137.123.137.151-.014.2-.082,2-.082,2.773,0,.693.013,1.237.026,1.713.015.421.287.462.627.571.218.069.3.15.3.231s-.176.148-.34.148c-.093,0-.774-.039-1.06-.039-.448,0-.95.053-1.193.053-.205,0-.354-.068-.354-.163s.093-.149.324-.2a.778.778,0,0,0,.543-.394,14.165,14.165,0,0,0,.056-1.55c0-.084.012-1.766-.013-1.929-.015-.095-.163-.22-.545-.489-.082-.069-.123-.125-.123-.163,0-.1.136-.205.284-.246" transform="translate(-278.103 -458.478)" fill="#fff"/>
        <path id="Trazado_377" data-name="Trazado 377" d="M351.271,463.545c.231,0,1.032.068,1.184.068.355,0,.706-.027.867-.027.2,0,.315.054.315.149s-.123.163-.3.218c-.38.109-.353.285-.285.461a20.259,20.259,0,0,0,1.173,2.789c.037.04.077.012.106-.054.177-.383.883-2.23,1.018-2.651.109-.342-.011-.436-.421-.584-.121-.041-.23-.1-.23-.19s.094-.15.273-.15c.243,0,.42.039.746.039.245,0,.664-.068.926-.068.122,0,.271.068.271.152s-.082.135-.3.217a1.474,1.474,0,0,0-.679.556c-.232.366-.707,1.6-1.114,2.555-.381.965-.4,1.1-.627,1.807-.067.2-.217.353-.326.353-.068,0-.151-.094-.19-.242-.137-.424-.192-.615-.5-1.4a30.121,30.121,0,0,0-1.387-3.153.875.875,0,0,0-.585-.462c-.2-.083-.271-.136-.271-.23s.206-.152.341-.152" transform="translate(-278.908 -459.251)" fill="#fff"/>
        <path id="Trazado_378" data-name="Trazado 378" d="M360.024,464.812c-.027.069.026.148.069.148.352.014,1,.014,1.683,0,.3,0,.462-.08.462-.365a.907.907,0,0,0-.869-.829,1.482,1.482,0,0,0-1.346,1.046m2.856-.867a1.613,1.613,0,0,1,.476,1.153.318.318,0,0,1-.271.257c-.151,0-2.448,0-3.073-.011a.168.168,0,0,0-.123.106,1.738,1.738,0,0,0-.054.477,2.756,2.756,0,0,0,.49,1.484,1.964,1.964,0,0,0,1.535.732,1.364,1.364,0,0,0,1.226-.49c.053-.069.121-.162.177-.162.077,0,.12.108.12.162a.9.9,0,0,1-.109.342,2.352,2.352,0,0,1-2.023,1.043,2.457,2.457,0,0,1-2.449-2.7,2.925,2.925,0,0,1,1.645-2.678,2.832,2.832,0,0,1,1.06-.23,2.018,2.018,0,0,1,1.375.518" transform="translate(-280.568 -459.226)" fill="#fff"/>
        <path id="Trazado_379" data-name="Trazado 379" d="M365.84,463.866a8.709,8.709,0,0,0,1.088-.463.773.773,0,0,1,.283-.15c.068,0,.137.109.137.15,0,.243-.026.489-.026.747,0,.055.067.081.08.055a2.693,2.693,0,0,1,1.536-.844c.571,0,.709.352.709.474a.562.562,0,0,1-.084.2,3.426,3.426,0,0,1-.581.668.424.424,0,0,1-.207-.039,1.373,1.373,0,0,0-.773-.316.7.7,0,0,0-.53.163.427.427,0,0,0-.137.3c0,.272.054,2.705.066,2.909.028.4.125.653.354.706a6.189,6.189,0,0,1,.612.149c.218.069.258.164.258.218,0,.082-.121.137-.337.137-.356,0-.887-.067-1.674-.067-.38,0-.569.053-.9.053-.152,0-.287-.053-.287-.176,0-.084.178-.137.272-.178.518-.179.559-.313.571-1.128v-2.527c0-.164,0-.342-.136-.437-.3-.232-.477-.338-.477-.392a.275.275,0,0,1,.179-.218" transform="translate(-281.965 -459.19)" fill="#fff"/>
        <path id="Trazado_380" data-name="Trazado 380" d="M374.193,463.472a2.6,2.6,0,0,1,.436.15.35.35,0,0,1,.123.2c0,.234.039.721.039.818,0,.121-.068.257-.162.257-.07,0-.164-.109-.232-.257-.3-.624-.653-.9-1.1-.9a.833.833,0,0,0-.776.8c0,.478.447.816,1.308,1.294.839.488,1.111.95,1.111,1.563a1.645,1.645,0,0,1-.8,1.331,2.4,2.4,0,0,1-1.179.326,2.758,2.758,0,0,1-1.335-.3,3.392,3.392,0,0,1-.219-1.048c0-.175.043-.3.111-.3.123,0,.216.163.3.317.394.717.789.976,1.252.976a.892.892,0,0,0,.544-.206.947.947,0,0,0,.311-.718,1.038,1.038,0,0,0-.6-.871c-.341-.233-.438-.313-.872-.571a1.723,1.723,0,0,1-.856-1.4,1.46,1.46,0,0,1,.762-1.266,2.174,2.174,0,0,1,1.126-.284,3.4,3.4,0,0,1,.708.08" transform="translate(-283.225 -459.219)" fill="#fff"/>
        <path id="Trazado_381" data-name="Trazado 381" d="M379.031,460.584a.753.753,0,0,1-.68.692.815.815,0,0,1-.461-.175.735.735,0,0,1-.217-.517.828.828,0,0,1,.176-.5.867.867,0,0,1,.569-.205c.4,0,.612.449.612.708m-1.616,2.487a14.288,14.288,0,0,0,1.413-.463c.07,0,.137.123.137.151-.014.2-.084,2-.084,2.773,0,.693.017,1.237.026,1.713.014.421.287.462.627.571.217.069.3.15.3.231s-.174.148-.338.148c-.095,0-.775-.039-1.061-.039-.448,0-.951.053-1.194.053-.206,0-.355-.068-.355-.163s.1-.149.327-.2a.787.787,0,0,0,.544-.394,14.955,14.955,0,0,0,.054-1.55c0-.084.013-1.766-.013-1.929-.013-.095-.164-.22-.545-.489-.08-.069-.123-.125-.123-.163,0-.1.137-.205.287-.246" transform="translate(-284.38 -458.478)" fill="#fff"/>
        <path id="Trazado_382" data-name="Trazado 382" d="M383.153,463.2a2.729,2.729,0,0,0-.557,1.7,2.2,2.2,0,0,0,1.9,2.323,1.455,1.455,0,0,0,.923-.3,2.2,2.2,0,0,0,.218-.844c.014-.786.014-1.658-.041-2.268a1.255,1.255,0,0,0-.286-.53,1.807,1.807,0,0,0-1.156-.533,1.472,1.472,0,0,0-1,.448m2.353-.868c.052.013.094-.082.108-.138a22.781,22.781,0,0,0-.014-2.731c-.014-.082-.014-.243-.625-.557-.121-.068-.149-.109-.149-.135,0-.058.149-.205.231-.219a11.306,11.306,0,0,0,1.467-.394.5.5,0,0,1,.193-.04.241.241,0,0,1,.093.215c-.055.681-.122,1.4-.122,5.33,0,2.746.029,2.746.04,3,.027.57.136.636.217.636.151,0,.587-.08.719-.092.055,0,.083.067.083.081a.616.616,0,0,1-.244.353,10.336,10.336,0,0,0-1.265.269,1.911,1.911,0,0,1-.516.141c-.054,0-.151-.11-.151-.178,0-.125.028-.353.028-.545a.092.092,0,0,0-.081-.095,2.749,2.749,0,0,1-1.738.665,2.291,2.291,0,0,1-1.686-.721,2.743,2.743,0,0,1-.683-1.874,2.8,2.8,0,0,1,1.457-2.5,3.762,3.762,0,0,1,1.794-.517,5.564,5.564,0,0,1,.843.042" transform="translate(-285.334 -458.107)" fill="#fff"/>
        <path id="Trazado_383" data-name="Trazado 383" d="M392.827,468.082c.08-.041.148-.287.162-.326.014-.286.028-.776.028-1.09,0-.041-.054-.11-.1-.11a3.594,3.594,0,0,0-1.346.41c-.149.083-.257.177-.257.517a.822.822,0,0,0,.815.813,1.53,1.53,0,0,0,.695-.215m.976-4.023a1.768,1.768,0,0,1,.287,1.141c0,.528-.056,2.214-.056,2.364,0,.571.395.652.531.652a2.153,2.153,0,0,0,.517-.2c.04-.014.054,0,.081.039a.36.36,0,0,1,.027.152,1.409,1.409,0,0,1-1.263.855.9.9,0,0,1-.884-.666c-.012-.026-.068-.067-.093-.055a6.127,6.127,0,0,1-1.2.612,2.3,2.3,0,0,1-.559.079c-.487,0-.963-.582-.963-1.274a1.218,1.218,0,0,1,.254-.706,1.264,1.264,0,0,1,.547-.328c.216-.1,1.334-.395,1.628-.49s.371-.159.371-.245c.012-.122.039-.938.027-1.1a1.016,1.016,0,0,0-1.035-.9.933.933,0,0,0-.529.136c-.07.043-.109.258-.1.574a.243.243,0,0,1-.067.133,5.336,5.336,0,0,1-.952.477c-.081,0-.161-.107-.161-.189,0-.381.366-.76,1.047-1.209a2.962,2.962,0,0,1,1.278-.516,1.425,1.425,0,0,1,1.262.666" transform="translate(-287.19 -459.219)" fill="#fff"/>
        <path id="Trazado_384" data-name="Trazado 384" d="M398.741,463.2a2.72,2.72,0,0,0-.558,1.7,2.2,2.2,0,0,0,1.9,2.323,1.452,1.452,0,0,0,.924-.3,2.188,2.188,0,0,0,.218-.844c.014-.786.014-1.658-.039-2.268a1.3,1.3,0,0,0-.287-.53,1.818,1.818,0,0,0-1.156-.533,1.472,1.472,0,0,0-1.005.448m2.352-.868c.054.013.1-.082.108-.138a23.284,23.284,0,0,0-.012-2.731c-.015-.082-.015-.243-.628-.557-.12-.068-.149-.109-.149-.135,0-.058.149-.205.23-.219a11.377,11.377,0,0,0,1.47-.394.467.467,0,0,1,.188-.04.229.229,0,0,1,.1.215c-.053.681-.123,1.4-.123,5.33,0,2.746.026,2.746.042,3,.028.57.135.636.216.636.15,0,.584-.08.721-.092.053,0,.082.067.082.081a.619.619,0,0,1-.246.353,10.206,10.206,0,0,0-1.263.269,1.914,1.914,0,0,1-.518.141c-.052,0-.151-.11-.151-.178,0-.125.031-.353.031-.545a.091.091,0,0,0-.082-.095,2.757,2.757,0,0,1-1.742.665,2.29,2.29,0,0,1-1.684-.721,2.741,2.741,0,0,1-.68-1.874,2.8,2.8,0,0,1,1.454-2.5,3.767,3.767,0,0,1,1.795-.517,5.579,5.579,0,0,1,.843.042" transform="translate(-288.621 -458.107)" fill="#fff"/>
      </g>
      <g id="Grupo_723" data-name="Grupo 723" transform="translate(154.957 84.524)">
        <path id="Trazado_385" data-name="Trazado 385" d="M257.123,495.06a1.65,1.65,0,0,1,.667-.346,1.741,1.741,0,0,1,.716.252,3.108,3.108,0,0,0,1.452.669.7.7,0,0,0,.62-.275,2.918,2.918,0,0,0,.46-1.5c.093-1.313.071-4.308.071-7.626,0-3.3-.071-5.6-.115-6.571-.022-.437-.252-.919-1.291-1.174-.507-.114-.735-.321-.735-.506,0-.16.183-.324.711-.324.713,0,1.639.094,2.63.094,1.268,0,2.1-.071,2.811-.071.345,0,.643.091.643.278s-.138.368-.689.506c-.783.186-1.084.484-1.107,1.613-.021,1.89-.117,7.953-.162,9.908a7.9,7.9,0,0,1-2.9,6.087,5.612,5.612,0,0,1-2.835,1.174c-.713,0-1.659-.392-1.659-1.038a2.865,2.865,0,0,1,.716-1.15" transform="translate(-256.407 -477.361)" fill="#fff"/>
        <path id="Trazado_386" data-name="Trazado 386" d="M278.165,485.6c-.347-1.084-1.36-3.873-1.683-4.634-.047-.161-.182-.115-.255.069-.414,1.107-1.52,4.009-1.658,4.565a.194.194,0,0,0,.162.229c.9-.023,2.6-.047,3.342-.047a.183.183,0,0,0,.092-.182m-.048-7.814c.207.551.622,1.729.922,2.582,1.268,3.572,2.834,7.743,3.3,8.894.761,1.866,1.268,2.1,2.051,2.328.393.116.6.252.6.416s-.229.345-.76.345c-.575,0-2.305-.094-3.02-.094-.762,0-1.656.047-2.257.047-.462,0-.739-.138-.739-.343,0-.119.161-.3.6-.394.944-.232.967-.6.92-.967a19.831,19.831,0,0,0-1.058-3.365.69.69,0,0,0-.555-.346c-2.442-.021-3.548.045-3.87.071-.069,0-.209.159-.255.23a11.526,11.526,0,0,0-.992,3.342c0,.462.23.782,1.084,1.013.462.114.67.252.67.462,0,.185-.322.3-.693.3-.414,0-.991-.047-1.842-.047-.9,0-1.937.094-2.283.094-.529,0-.668-.138-.668-.277,0-.162.094-.321.575-.46,1.176-.324,1.431-.695,2.1-2.052.552-1.105,3.041-7.675,4.009-9.957a1.7,1.7,0,0,0,.117-.413c0-.068-.025-.139.046-.184a14.533,14.533,0,0,0,1.2-1.429.57.57,0,0,1,.414-.3c.115,0,.207.048.392.507" transform="translate(-259.066 -477.283)" fill="#fff"/>
        <path id="Trazado_387" data-name="Trazado 387" d="M287.685,477.632c.462,0,1.612.116,2.744.116.781,0,2.211-.048,2.74-.048.3,0,.554.117.554.278,0,.186-.16.37-.576.483-1.037.278-1.015.6-.83,1.245.346,1.13,2.81,7.258,3.365,8.389.044.067.184.067.207,0,.185-.37,2.628-6.063,3.317-7.882.509-1.364-.113-1.452-1.035-1.8-.254-.09-.508-.25-.508-.39,0-.161.254-.346.623-.346.714,0,1.2.071,1.959.071.666,0,1.589-.093,2.075-.093.393,0,.691.139.691.323,0,.206-.232.37-.624.435-1.037.255-1.519.74-2.1,1.937-.506,1.132-1.934,3.917-3.318,7.331-.758,1.817-1.267,3.107-1.728,4.514-.089.255-.39.6-.621.6-.253,0-.46-.393-.507-.555a29.578,29.578,0,0,0-1.2-3.526c-.784-2.1-2.557-6.336-3.432-8.435-.484-1.081-.83-1.588-1.867-1.889-.278-.069-.6-.163-.6-.415,0-.209.321-.346.669-.346" transform="translate(-262.736 -477.355)" fill="#fff"/>
        <path id="Trazado_388" data-name="Trazado 388" d="M318.08,477.742a17.927,17.927,0,0,0,2.028-.139c.091-.024.255.139.275.3.025.413.025,2,.025,2.462,0,.324-.163.648-.369.648s-.392-.346-.44-.577c-.3-1.29-.943-1.637-1.475-1.729a21.192,21.192,0,0,0-3.2-.137c-.1,0-.278.091-.3.644-.047.577-.117,3.781-.094,5.047a.267.267,0,0,0,.229.23H316.6c1.637,0,1.59-.091,2.03-1.105.139-.347.3-.6.505-.6.185,0,.253.394.232.648-.048.645-.092,1.057-.092,1.59,0,.622.044.988.092,1.565.021.415-.116.693-.3.693s-.369-.278-.435-.508c-.3-1.013-.6-1.174-1.5-1.244-.737-.07-1.589-.07-2.305-.07-.091,0-.3.232-.3.278a29.1,29.1,0,0,0-.047,3.2,16.145,16.145,0,0,0,.094,1.889.857.857,0,0,0,.505.553,11.271,11.271,0,0,0,1.868.139,6.946,6.946,0,0,0,2.117-.208,3.549,3.549,0,0,0,1.821-1.7c.324-.6.532-.808.718-.808.228,0,.2.484.182.669a18.743,18.743,0,0,1-.874,2.673.846.846,0,0,1-.553.3c-.255,0-5.947-.117-7.674-.117-1.545,0-1.8.117-2.627.117-.44,0-.786-.071-.786-.3,0-.209.3-.368.692-.46,1.176-.279,1.477-.507,1.566-1.752.068-.968.186-2.719.186-5.577,0-2.718.023-3.777-.021-4.447-.047-.83-.232-1.29-1.222-1.476-.486-.09-.738-.183-.738-.415,0-.2.393-.345.714-.345,1.082,0,2.972.071,4.173.071Z" transform="translate(-267.338 -477.349)" fill="#fff"/>
        <path id="Trazado_389" data-name="Trazado 389" d="M335.58,479.194a2.64,2.64,0,0,0-1.87-.808,3.493,3.493,0,0,0-.877.163.991.991,0,0,0-.274.481c-.069.785-.163,4.817-.069,5.418a.36.36,0,0,0,.3.275,5.98,5.98,0,0,0,2.49-.505,3.134,3.134,0,0,0,1.289-2.581,3.644,3.644,0,0,0-.988-2.442m2.231,5.115c-.092.068-.577.324-.9.484-.114.044-.09.232-.046.321a36.318,36.318,0,0,0,3.481,5.439,3.245,3.245,0,0,0,1.981,1.153c.231.046.416.23.416.324,0,.137-.207.3-.368.344a6.27,6.27,0,0,1-1.544.186,3.87,3.87,0,0,1-3.478-1.5c-.646-.878-1.821-2.768-2.787-4.426a3.994,3.994,0,0,0-.74-.967,2.109,2.109,0,0,0-1.107-.3.318.318,0,0,0-.252.23c-.047.462,0,3.526.067,4.585.069.992.231,1.22,1.291,1.5.392.116.553.275.553.435,0,.255-.438.347-.715.347-.808,0-1.819-.139-2.949-.139-.807,0-1.959.094-2.215.094-.572,0-.736-.161-.736-.368,0-.141.256-.277.554-.369,1.06-.324,1.314-.6,1.381-1.336.141-1.777.141-3.711.141-5.67,0-2.465-.046-4.426-.117-5.047-.047-.553-.255-.9-1.338-1.153-.321-.091-.576-.254-.576-.438,0-.159.278-.322.669-.322h1.681c.854,0,2.767-.115,4.011-.115a6.6,6.6,0,0,1,4.01,1.015,3.706,3.706,0,0,1,1.245,2.741,3.633,3.633,0,0,1-1.613,2.95" transform="translate(-271.16 -477.349)" fill="#fff"/>
        <path id="Trazado_390" data-name="Trazado 390" d="M351.046,480.2c-.068-1.1-.068-1.45-1.2-1.728-.555-.138-.693-.3-.693-.46,0-.183.324-.324.737-.324.67,0,1.866.071,2.63.071,1.127,0,1.932-.071,2.742-.071.392,0,.713.091.713.324,0,.209-.321.392-.713.46-1.154.207-1.222.808-1.27,1.406-.067.577-.09,1.383-.09,5.346,0,2.79.023,3.781.07,4.472.094,1.36.231,1.636,1.519,1.982.416.09.645.251.645.484s-.436.3-.712.3c-.924,0-2.49-.14-3.459-.117-.667,0-1.357.071-2.211.071-.551,0-.713-.162-.713-.394,0-.16.206-.32.69-.435,1.06-.255,1.222-.739,1.267-1.729.07-.876.115-3.251.115-5.206,0-1.178,0-3.573-.068-4.451" transform="translate(-275.56 -477.367)" fill="#fff"/>
        <path id="Trazado_391" data-name="Trazado 391" d="M369.468,485.6c-.346-1.084-1.357-3.873-1.681-4.634-.047-.161-.186-.115-.254.069-.414,1.107-1.522,4.009-1.659,4.565a.192.192,0,0,0,.161.229c.9-.023,2.6-.047,3.341-.047a.178.178,0,0,0,.091-.182m-.044-7.814c.207.551.621,1.729.923,2.582,1.265,3.572,2.833,7.743,3.293,8.894.76,1.866,1.268,2.1,2.051,2.328.392.116.6.252.6.416s-.232.345-.762.345c-.576,0-2.3-.094-3.019-.094-.76,0-1.658.047-2.257.047-.461,0-.735-.138-.735-.343,0-.119.159-.3.6-.394.943-.232.968-.6.92-.967a19.837,19.837,0,0,0-1.061-3.365.68.68,0,0,0-.551-.346c-2.444-.021-3.549.045-3.871.071-.07,0-.209.159-.254.23a11.623,11.623,0,0,0-.992,3.342c0,.462.233.782,1.083,1.013.462.114.669.252.669.462,0,.185-.322.3-.691.3-.416,0-.991-.047-1.844-.047-.9,0-1.936.094-2.281.094-.531,0-.667-.138-.667-.277,0-.162.092-.321.575-.46,1.176-.324,1.429-.695,2.1-2.052.554-1.105,3.042-7.675,4.011-9.957a1.736,1.736,0,0,0,.115-.413c0-.068-.023-.139.047-.184a14.41,14.41,0,0,0,1.2-1.429.571.571,0,0,1,.416-.3c.116,0,.206.048.392.507" transform="translate(-277.944 -477.283)" fill="#fff"/>
        <path id="Trazado_392" data-name="Trazado 392" d="M383.878,477.655c.506,0,2.327.094,3.5.094a1.4,1.4,0,0,1,.507.3c.348.415.992,1.129,1.936,2.234,1.13,1.382,5.646,6.063,6.867,7.353.115.114.206-.092.206-.14.114-.667.048-3.271.048-5.206,0-.784-.07-1.868-.14-2.467-.048-.46-.276-.99-1.428-1.29-.462-.118-.761-.255-.761-.531,0-.163.253-.276.667-.276.577,0,1.108.024,1.568.024,1.107,0,2.051-.117,2.649-.117.391,0,.554.137.554.3,0,.138-.163.345-.577.461-1.2.391-1.313.807-1.428,1.73-.068.828-.232,6.658-.232,8.615,0,.968.14,3,.14,3.6a.534.534,0,0,1-.37.44c-.483,0-1.036-.6-1.245-.876-.436-.577-.874-1.108-1.5-1.867-2.165-2.651-5.922-6.615-7.971-9.034-.116-.138-.255.045-.255.115-.047.622-.091,1.153-.114,2.974-.023,3.2-.067,4.954.047,6.083.094.738.344,1.129,1.451,1.474.483.14.645.3.645.439,0,.252-.324.345-.761.345-.668,0-1.2-.093-2-.093-.506,0-1.8.071-2.189.071-.324,0-.6-.115-.6-.3,0-.23.275-.345.505-.412,1.063-.324,1.614-.507,1.682-2.235.117-2.581.417-7.007.417-8.665,0-.923-.069-1.2-.14-1.29a2.415,2.415,0,0,0-1.774-1.106c-.255-.045-.6-.229-.6-.392,0-.183.277-.346.693-.346" transform="translate(-282.6 -477.355)" fill="#fff"/>
        <path id="Trazado_393" data-name="Trazado 393" d="M414.414,485.6c-.347-1.084-1.36-3.873-1.682-4.634-.044-.161-.184-.115-.253.069-.413,1.107-1.522,4.009-1.66,4.565a.194.194,0,0,0,.161.229c.9-.023,2.6-.047,3.342-.047a.176.176,0,0,0,.092-.182m-.047-7.814c.209.551.624,1.729.923,2.582,1.268,3.572,2.833,7.743,3.3,8.894.76,1.866,1.267,2.1,2.05,2.328.391.116.6.252.6.416s-.231.345-.761.345c-.577,0-2.306-.094-3.017-.094-.762,0-1.661.047-2.261.047-.46,0-.735-.138-.735-.343,0-.119.159-.3.6-.394.946-.232.968-.6.923-.967a20.362,20.362,0,0,0-1.061-3.365.688.688,0,0,0-.554-.346c-2.442-.021-3.548.045-3.87.071-.071,0-.209.159-.253.23a11.553,11.553,0,0,0-.992,3.342c0,.462.231.782,1.083,1.013.462.114.669.252.669.462,0,.185-.322.3-.693.3-.412,0-.991-.047-1.843-.047-.9,0-1.936.094-2.281.094-.53,0-.666-.138-.666-.277,0-.162.091-.321.574-.46,1.176-.324,1.43-.695,2.1-2.052.553-1.105,3.041-7.675,4.008-9.957a1.6,1.6,0,0,0,.117-.413c0-.068-.023-.139.046-.184a14.558,14.558,0,0,0,1.2-1.429.566.566,0,0,1,.413-.3c.115,0,.208.048.391.507" transform="translate(-287.237 -477.283)" fill="#fff"/>
      </g>
      <g id="Grupo_722" data-name="Grupo 722" transform="translate(56.496 39.841)">
        <path id="Trazado_394" data-name="Trazado 394" d="M168.036,503.6c-.743-.174-1.114-.406-1.2-1.014-.058-.463-.086-2.665-.086-5.937V492.33c.029-.9.143-1.216,1.058-1.448.285-.058.457-.232.457-.319,0-.116-.143-.174-.486-.174-.743,0-2.544.115-3.029.115-.687,0-2.115-.115-2.658-.115-.315,0-.487.115-.487.2s.258.231.429.29c.6.145,1.029.347,1.143,1.013.029.377.057,1.275.057,2.375,0,.551,0,6.286-.028,7.5-.029,1.188-.228,1.594-1.172,1.826-.258.058-.457.116-.457.26a.531.531,0,0,0,.486.232c.857,0,1.944-.145,2.858-.145,1,0,2.258.116,3.029.116.229,0,.458-.058.458-.231,0-.087-.114-.175-.372-.232" transform="translate(-136.788 -434.3)" fill="#fff"/>
        <path id="Trazado_395" data-name="Trazado 395" d="M207.754,496.3c-.543-.377-1.459-.9-2.344-1.565-1.058-.811-1.4-1.42-1.4-2.2a2.028,2.028,0,0,1,2.086-2.144,2.9,2.9,0,0,1,1.8.725,4.717,4.717,0,0,1,1,1.564c.086.231.2.377.285.377.115,0,.2-.146.143-.435a11.373,11.373,0,0,1-.2-1.97.309.309,0,0,0-.228-.289,11.032,11.032,0,0,0-2.888-.377,6.327,6.327,0,0,0-2.972.724,3.59,3.59,0,0,0-1.744,3.244c0,1.824.972,3.1,3.4,4.663,1.572.984,2.487,1.912,2.487,2.984a2.178,2.178,0,0,1-2.4,2.259,3.433,3.433,0,0,1-2.173-.869,4.338,4.338,0,0,1-1.315-1.912c-.115-.318-.171-.521-.315-.521-.086,0-.257.174-.143.609.143.839.172,1.737.258,2.142a.429.429,0,0,0,.258.319,12.52,12.52,0,0,0,3.343.695c2.916,0,5.374-1.593,5.374-4.2a4.476,4.476,0,0,0-2.315-3.823" transform="translate(-145.464 -434.209)" fill="#fff"/>
        <path id="Trazado_396" data-name="Trazado 396" d="M191.949,501.977c-.944-.232-1.144-.637-1.172-1.826-.029-1.216-.029-6.951-.029-7.5,0-1.1.029-2,.057-2.375.115-.666.544-.868,1.144-1.013.171-.058.428-.2.428-.29s-.171-.2-.486-.2c-.543,0-1.973.115-2.658.115-.486,0-2.287-.115-3.03-.115-.343,0-.485.058-.485.174,0,.086.171.26.457.319.914.231,1.028.551,1.057,1.448v4.114c-.01.162-.049.207-.167.231-.035.012-1.171.02-2.5.021v-8.049h2.54v-1.709h-2.54v-2.255h-1.687v2.255h-2.542v1.709h2.542v8.049c-1.317,0-2.452-.009-2.522-.021-.114-.029-.143-.174-.143-.58v-3.765c.029-.9.143-1.216,1.058-1.448.286-.058.458-.232.458-.319,0-.116-.143-.174-.486-.174-.743,0-2.544.115-3.03.115-.685,0-2.114-.115-2.657-.115-.315,0-.487.115-.487.2s.258.231.429.29c.6.145,1.029.347,1.143,1.013.029.377.057,1.275.057,2.375,0,.551,0,6.286-.028,7.5-.029,1.188-.229,1.593-1.172,1.826-.258.058-.458.116-.458.26a.533.533,0,0,0,.487.232c.857,0,1.943-.145,2.857-.145,1,0,2.258.116,3.03.116.229,0,.457-.058.457-.231,0-.087-.114-.174-.371-.232-.744-.174-1.114-.406-1.2-1.014-.05-.412-.079-2.2-.083-4.895.027-.089.065-.145.083-.145.258-.058,6.62-.058,6.735-.03.136.023.181.175.195.353-.006,2.595-.035,4.313-.084,4.716-.086.608-.457.84-1.2,1.014-.258.058-.372.145-.372.232,0,.173.228.231.457.231.772,0,2.03-.116,3.03-.116.914,0,2,.145,2.858.145a.531.531,0,0,0,.486-.232c0-.144-.2-.2-.457-.26" transform="translate(-139.766 -432.679)" fill="#fff"/>
        <path id="Trazado_397" data-name="Trazado 397" d="M205.644,476.049a.8.8,0,0,1,.731-.48.783.783,0,0,1,.323.069c.347.157.62.821.7,1.02a.238.238,0,0,1,0,.177.229.229,0,0,1-.127.122,2.913,2.913,0,0,1-.921.212.721.721,0,0,1-.294-.053.814.814,0,0,1-.4-1.067m1.906,2.227a.231.231,0,0,1,.153.059.234.234,0,0,1,.075.16,2.1,2.1,0,0,1-.226,1.22.794.794,0,0,1-1.128.06.82.82,0,0,1-.058-1.143,2.038,2.038,0,0,1,1.173-.356Zm.407-1.185a.618.618,0,0,1,.059-.1l.02-.028a.668.668,0,0,1,.057-.066.3.3,0,0,0,.023-.023c.017-.016.036-.028.054-.042v0a.619.619,0,0,1,.131-.075h0l.005,0,.032-.012a.6.6,0,0,1,.083-.023l.029-.006a.659.659,0,0,1,.111-.009.688.688,0,0,1,.088.009c.015,0,.029,0,.043.005a.634.634,0,0,1,.129.043.666.666,0,0,1,.289.957h0c0,.008-.009.016-.013.023s-.014.019-.021.028a.525.525,0,0,1-.057.066l-.023.023a.7.7,0,0,1-.09.07s-.009,0-.013.007a.659.659,0,0,1-.088.044l-.032.012a.529.529,0,0,1-.083.023l-.03.007a.637.637,0,0,1-.077.005v0l-.026,0a.641.641,0,0,1-.266-.058.666.666,0,0,1-.332-.877m.064-2.228a.8.8,0,0,1,.794-.725.777.777,0,0,1,.083.005.808.808,0,0,1,.71.889c-.041.383-.579.852-.743.986a.23.23,0,0,1-.145.051H208.7a.225.225,0,0,1-.153-.084,2.1,2.1,0,0,1-.525-1.121m1.834,2.058c.114-.18.519-.772.889-.852a.821.821,0,0,1,.167-.018.8.8,0,0,1,.78.64.809.809,0,0,1-.614.96.575.575,0,0,1-.111.011,2.391,2.391,0,0,1-1.044-.423.235.235,0,0,1-.1-.146.229.229,0,0,1,.032-.173m.308,3.251a.786.786,0,0,1-.4.107.8.8,0,0,1-.693-.4,2.114,2.114,0,0,1,.03-1.24.236.236,0,0,1,.107-.14.224.224,0,0,1,.114-.031.2.2,0,0,1,.058.008c.2.056.885.262,1.076.595a.816.816,0,0,1-.293,1.105m-4.427-2.346a.172.172,0,1,1,.06.286,1.6,1.6,0,0,0,.115,2.24,1.552,1.552,0,0,0,2.211-.117,1.318,1.318,0,0,0,.169-.251,1.308,1.308,0,0,0,.118.281,1.559,1.559,0,0,0,2.867-.383,1.6,1.6,0,0,0-.156-1.2,1.367,1.367,0,0,0-.181-.24l.026,0a1.28,1.28,0,0,0,.27-.027,1.557,1.557,0,0,0,.988-.688,1.6,1.6,0,0,0,.218-1.194,1.576,1.576,0,0,0-1.53-1.256,1.593,1.593,0,0,0-.326.035,1.336,1.336,0,0,0-.28.1,1.365,1.365,0,0,0,.067-.293,1.585,1.585,0,0,0-1.393-1.745,1.462,1.462,0,0,0-.164-.008,1.569,1.569,0,0,0-1.557,1.419,1.393,1.393,0,0,0,.007.305,1.327,1.327,0,0,0-.255-.158,1.544,1.544,0,0,0-.636-.138,1.569,1.569,0,0,0-1.431.942,1.6,1.6,0,0,0-.031,1.213,1.567,1.567,0,0,0,.825.881" transform="translate(-146.351 -430.534)" fill="#fff"/>
        <path id="Trazado_398" data-name="Trazado 398" d="M193.753,471.882a.686.686,0,0,0,.833-.234.7.7,0,0,0-.358-.8.686.686,0,0,0-.832.234.705.705,0,0,0,.357.8" transform="translate(-143.819 -429.966)" fill="#fff"/>
        <path id="Trazado_399" data-name="Trazado 399" d="M160.409,476.693a.8.8,0,0,1,.78-.64.765.765,0,0,1,.167.018c.371.079.775.671.889.851a.227.227,0,0,1,.033.174.232.232,0,0,1-.1.146,2.389,2.389,0,0,1-1.044.423.525.525,0,0,1-.111-.012.81.81,0,0,1-.614-.96m2.793-2.548a.761.761,0,0,1,.083-.005.8.8,0,0,1,.794.725,2.112,2.112,0,0,1-.524,1.121.231.231,0,0,1-.154.084h-.022a.232.232,0,0,1-.146-.051c-.164-.135-.7-.6-.742-.987a.807.807,0,0,1,.71-.889m.942,2.948a.667.667,0,0,1-.331.876.637.637,0,0,1-.266.058l-.026,0h0c-.026,0-.053,0-.079-.006l-.029-.006a.5.5,0,0,1-.083-.023l-.032-.012a.615.615,0,0,1-.088-.044l-.013-.007a.692.692,0,0,1-.09-.069l-.023-.023a.821.821,0,0,1-.058-.067l-.02-.027a.237.237,0,0,1-.012-.023h0a.666.666,0,0,1,.289-.957.676.676,0,0,1,.129-.042c.014,0,.029,0,.043-.005a.69.69,0,0,1,.089-.009.663.663,0,0,1,.111.009.187.187,0,0,1,.029.006.615.615,0,0,1,.083.023l.032.012.005,0h0a.636.636,0,0,1,.129.076v0c.018.013.037.026.055.041l.023.023a.691.691,0,0,1,.057.067l.02.027a.656.656,0,0,1,.059.105m.179,1.4a.236.236,0,0,1,.075-.159.224.224,0,0,1,.153-.059h.012a2.029,2.029,0,0,1,1.173.356.817.817,0,0,1-.059,1.142.786.786,0,0,1-.533.208.8.8,0,0,1-.594-.267,2.106,2.106,0,0,1-.225-1.22m.385-1.836c.076-.2.349-.864.695-1.021a.788.788,0,0,1,.323-.069.8.8,0,0,1,.731.481.814.814,0,0,1-.4,1.067.729.729,0,0,1-.292.052,2.916,2.916,0,0,1-.922-.211.228.228,0,0,1-.127-.122.233.233,0,0,1,0-.176m-1.68,3.217a.8.8,0,0,1-.692.4.789.789,0,0,1-.4-.108.816.816,0,0,1-.293-1.105c.191-.333.871-.538,1.075-.595a.211.211,0,0,1,.058-.008.234.234,0,0,1,.115.031.229.229,0,0,1,.106.14,2.1,2.1,0,0,1,.03,1.241m-2.163-1.464a1.286,1.286,0,0,0,.27.028l.028,0a1.324,1.324,0,0,0-.181.239,1.6,1.6,0,0,0-.157,1.2,1.576,1.576,0,0,0,.73.963,1.548,1.548,0,0,0,.781.212,1.566,1.566,0,0,0,1.357-.794,1.341,1.341,0,0,0,.117-.28,1.335,1.335,0,0,0,.17.251,1.552,1.552,0,0,0,2.21.116,1.6,1.6,0,0,0,.116-2.238,1.249,1.249,0,0,0-.228-.2,1.315,1.315,0,0,0,.288-.09,1.563,1.563,0,0,0,.823-.88,1.592,1.592,0,0,0-.031-1.213,1.567,1.567,0,0,0-1.431-.942,1.545,1.545,0,0,0-.635.137,1.349,1.349,0,0,0-.257.16,1.332,1.332,0,0,0,.008-.3,1.57,1.57,0,0,0-1.557-1.421,1.432,1.432,0,0,0-.163.008,1.583,1.583,0,0,0-1.393,1.743,1.291,1.291,0,0,0,.068.294,1.26,1.26,0,0,0-.283-.1,1.519,1.519,0,0,0-.326-.035,1.576,1.576,0,0,0-1.53,1.258,1.6,1.6,0,0,0,.218,1.192,1.556,1.556,0,0,0,.988.688" transform="translate(-136.356 -430.534)" fill="#fff"/>
        <path id="Trazado_400" data-name="Trazado 400" d="M180.167,471.882a.7.7,0,0,0,.358-.8.687.687,0,0,0-.833-.234.7.7,0,0,0-.357.8.686.686,0,0,0,.833.234" transform="translate(-140.708 -429.966)" fill="#fff"/>
        <path id="Trazado_401" data-name="Trazado 401" d="M187.772,434.776c0-.42-.4-1.067-.9-1.067s-.9.647-.9,1.067.4,1.067.9,1.067.9-.647.9-1.067" transform="translate(-142.184 -421.762)" fill="#fff"/>
        <path id="Trazado_402" data-name="Trazado 402" d="M195.282,436.633c.353.04.688-.387.72-.685s-.2-.788-.555-.828-.688.387-.72.685.2.788.555.827" transform="translate(-144.12 -422.073)" fill="#fff"/>
        <path id="Trazado_403" data-name="Trazado 403" d="M178.468,435.12c-.352.04-.588.53-.555.828s.368.724.72.685.588-.53.555-.827-.368-.725-.72-.685" transform="translate(-140.401 -422.073)" fill="#fff"/>
        <path id="Trazado_404" data-name="Trazado 404" d="M187.666,444.484c0-.35-.335-.887-.748-.887s-.748.537-.748.887.335.887.748.887.748-.538.748-.887" transform="translate(-142.228 -423.949)" fill="#fff"/>
        <path id="Trazado_405" data-name="Trazado 405" d="M193.9,446.094c.289.058.6-.273.643-.516a.667.667,0,0,0-.4-.725c-.289-.058-.6.273-.644.516s.115.667.4.725" transform="translate(-143.847 -424.225)" fill="#fff"/>
        <path id="Trazado_406" data-name="Trazado 406" d="M179.837,444.853c-.289.058-.449.481-.4.726s.354.574.644.516.449-.48.4-.724-.354-.574-.644-.517" transform="translate(-140.736 -424.225)" fill="#fff"/>
        <path id="Trazado_407" data-name="Trazado 407" d="M187.554,452.6c0-.276-.264-.7-.59-.7s-.591.424-.591.7.265.7.591.7.59-.425.59-.7" transform="translate(-142.273 -425.785)" fill="#fff"/>
        <path id="Trazado_408" data-name="Trazado 408" d="M192.477,453.867c.228.045.47-.216.509-.408s-.09-.527-.319-.572-.471.215-.509.408a.528.528,0,0,0,.319.572" transform="translate(-143.551 -426.003)" fill="#fff"/>
        <path id="Trazado_409" data-name="Trazado 409" d="M181.375,452.887a.529.529,0,0,0-.319.572c.037.193.28.454.509.408s.354-.379.318-.572-.28-.452-.509-.408" transform="translate(-141.095 -426.003)" fill="#fff"/>
        <path id="Trazado_410" data-name="Trazado 410" d="M209.742,491.032c-.1,0-.2-.005-.3-.009a6.785,6.785,0,0,0-2.463-.678,5.3,5.3,0,0,0-1.2-2.064,8.536,8.536,0,0,1,1.695-.152,14.508,14.508,0,0,1,1.586.093,53.907,53.907,0,0,0,5.916.329c.95,0,1.749-.026,2.368-.057a14.3,14.3,0,0,1-7.6,2.537m2.706,4.188a20.733,20.733,0,0,0-3.814-1.194,5.365,5.365,0,0,1-1.551-.6,6.311,6.311,0,0,0,.078-2.282,7.1,7.1,0,0,1,5.287,4.077m-6.177-1.7a15.986,15.986,0,0,1-3.347,2.494,32.16,32.16,0,0,1-4.113,2.165,3.1,3.1,0,0,0,.129-.316,5.14,5.14,0,0,0-.58-4.207,4.858,4.858,0,0,0-3.333-2.635,27.971,27.971,0,0,0,6.284-3.658,1.595,1.595,0,0,1,1.445-.148c4.69,1.884,3.7,5.73,3.515,6.306m-8.715,5.119a1.416,1.416,0,0,1-1.1.016,1.665,1.665,0,0,1-.758-.975,1.592,1.592,0,0,1,.122-1.519c.878-.361,1.46-.612,2.329-1.054a3.172,3.172,0,0,1-.6,3.532m-6.039-3.718a25.557,25.557,0,0,1-3.2.366,10.137,10.137,0,0,0-5.078,1.53l-.374.055a4.837,4.837,0,0,1,.2-1.122,44.549,44.549,0,0,0,12.687-3.665,3.91,3.91,0,0,1,1.018.7,38.042,38.042,0,0,1-5.251,2.131m-4.317,3.628h0a11.413,11.413,0,0,1-3.98-.761,6.474,6.474,0,0,1,.885-.59,9.848,9.848,0,0,1,4.255-1.136,19.273,19.273,0,0,0,5.671-1.019l.033-.012a8.214,8.214,0,0,1-6.866,3.517m5.528.779a10.147,10.147,0,0,0,3.285,1.352,31.834,31.834,0,0,1-4.214.306c-4.208,0-6.459-1.09-7.634-2.073a11.752,11.752,0,0,0,3.036.413,9.143,9.143,0,0,0,3.891-.841,9.847,9.847,0,0,1,1.637.843m-1.1,5.742a10.517,10.517,0,0,0-3.062-1.988,11.58,11.58,0,0,1-4.423-3.187,11.62,11.62,0,0,0,5.772,1.793,8.114,8.114,0,0,1,1.713,3.382m-11.816-2.594c-.878,0-1.976-1.576-2.291-2.128a.38.38,0,0,0-.41-.186.385.385,0,0,0-.3.337c-.277,2.533.121,4.427,1.184,5.63a3.874,3.874,0,0,0,.928.771,5.165,5.165,0,0,1-1.337-.447,5.35,5.35,0,0,1-2.773-3.317.382.382,0,0,0-.741,0,5.355,5.355,0,0,1-2.774,3.317,5.161,5.161,0,0,1-1.338.447,3.874,3.874,0,0,0,.928-.771,4.133,4.133,0,0,0,.352-.461h0a7.8,7.8,0,0,0,.832-5.167.386.386,0,0,0-.3-.337.37.37,0,0,0-.078-.008.383.383,0,0,0-.333.195c-.314.552-1.41,2.128-2.29,2.128a18.693,18.693,0,0,1-5.092-.616,5.077,5.077,0,0,0,2.8-4,4.832,4.832,0,0,0-1.651-4.46l.035.008a42.2,42.2,0,0,0,9.26.978h.043a42.14,42.14,0,0,0,9.258-.979l.035-.007a4.828,4.828,0,0,0-1.651,4.46,5.074,5.074,0,0,0,2.8,4,18.7,18.7,0,0,1-5.091.616m.107,3.164c.14-.039.286-.081.451-.118a1.769,1.769,0,0,1,.991.389.588.588,0,0,1,.1.81c-.061,0-.14.008-.237.008a3.6,3.6,0,0,1-2.419-.875,4.9,4.9,0,0,0,1.114-.213m-12.266,1.088c-.1,0-.176,0-.237-.008a.588.588,0,0,1,.1-.81,1.759,1.759,0,0,1,.99-.389c.166.037.311.079.452.118a4.889,4.889,0,0,0,1.114.213,3.6,3.6,0,0,1-2.418.875m-7.378-3.646a10.484,10.484,0,0,0-3.065,1.991,8.057,8.057,0,0,1,1.688-3.384,11.655,11.655,0,0,0,5.8-1.8,11.574,11.574,0,0,1-4.423,3.188m-3.229-2.1h0a31.858,31.858,0,0,1-4.212-.306,10.115,10.115,0,0,0,3.286-1.352,9.758,9.758,0,0,1,1.745-.887,9.348,9.348,0,0,0,3.9.829,11.831,11.831,0,0,0,2.981-.4c-1.153.993-3.4,2.11-7.7,2.111m-2.159-5.913a18.974,18.974,0,0,0,5.6.991,9.854,9.854,0,0,1,4.255,1.136,6.39,6.39,0,0,1,.879.586,11.37,11.37,0,0,1-3.853.709,8.366,8.366,0,0,1-6.879-3.42m-2.773-2.283a3.979,3.979,0,0,1,1.017-.7,44.548,44.548,0,0,0,12.687,3.665,4.8,4.8,0,0,1,.2,1.122l-.42-.062a10.139,10.139,0,0,0-5.068-1.523,25.521,25.521,0,0,1-3.121-.353,37.673,37.673,0,0,1-5.293-2.144m-1.593.865a4.915,4.915,0,0,0-.435,4.529,32.186,32.186,0,0,1-4.128-2.171,16.035,16.035,0,0,1-3.347-2.494c-.18-.579-1.174-4.422,3.516-6.306a1.595,1.595,0,0,1,1.445.148,28,28,0,0,0,6.283,3.658,4.861,4.861,0,0,0-3.333,2.635m2.536,2.506a1.59,1.59,0,0,1,.123,1.519,1.669,1.669,0,0,1-.757.975,1.416,1.416,0,0,1-1.1-.016,2.084,2.084,0,0,1-.283-.319,3.3,3.3,0,0,1-.4-2.9c.026-.1.057-.2.09-.308.868.442,1.45.693,2.327,1.054m-11.155-5.813a6.779,6.779,0,0,0-2.462.678c-.1,0-.2.009-.3.009a14.3,14.3,0,0,1-7.6-2.537c.619.031,1.418.057,2.368.057h0a53.892,53.892,0,0,0,5.916-.329,14.5,14.5,0,0,1,1.586-.093,8.333,8.333,0,0,1,1.692.155,5.294,5.294,0,0,0-1.2,2.061m-1.654,3.681a20.725,20.725,0,0,0-3.814,1.194,7.1,7.1,0,0,1,5.286-4.077,6.371,6.371,0,0,0,.077,2.279,5.3,5.3,0,0,1-1.549.6m-4.163-9.778a32.014,32.014,0,0,0,5.534.873,4.439,4.439,0,0,1,3.5,1.692,7.621,7.621,0,0,0-1.333.84,8.329,8.329,0,0,0-2.378-.3c-.439,0-.912.025-1.4.072a10.955,10.955,0,0,1-3.918-3.176m-.9-1.1a.38.38,0,0,0-.449.118l-.008.012a6.407,6.407,0,0,1-2.215-5.564,4.254,4.254,0,0,1,.231-.944,4.019,4.019,0,0,1,1.612-1.942v2.791a1.027,1.027,0,0,0,0,.167v0a2.912,2.912,0,0,0,3.142,2.427,3.273,3.273,0,0,0,3.394-2.754.39.39,0,0,0,.063-.213v-.782a10.405,10.405,0,0,0,2.174-.628,10.212,10.212,0,0,0-1.424,5.13,9.828,9.828,0,0,0,.635,3.457c-.209-.033-.427-.061-.657-.08a24.019,24.019,0,0,1-6.5-1.2m-2.8-27.881a36.94,36.94,0,0,0,2.065,5.53,7.031,7.031,0,0,1,.573,1.85,5.768,5.768,0,0,0-2.046,1.143c-.886-1.572-1.588-4.244-.592-8.523m4.226-4.528a25.019,25.019,0,0,0,.7,7.776,8.055,8.055,0,0,1,.117,4.034,6.241,6.241,0,0,0-1.1-.1,4.509,4.509,0,0,0-.558.036,7.876,7.876,0,0,0-.628-2.016c-.3-.654-.557-1.26-.784-1.824a16.985,16.985,0,0,1,2.248-7.909M135.123,476.3v-1.868a5.55,5.55,0,0,1,1.973-.41v1.708a2.819,2.819,0,0,0-1.1.142,3.087,3.087,0,0,0-.87.428m1.1.311a1.805,1.805,0,0,1,1.114-.051.38.38,0,0,0,.356-.043.39.39,0,0,0,.167-.32v-2.1a2.487,2.487,0,0,1,.325.091,2.82,2.82,0,0,1,2,2.653,2.542,2.542,0,0,1-2.689,2.6,2.154,2.154,0,0,1-2.378-1.727v-.082c.018-.188.157-.708,1.1-1.016m3.964-11.884v9.923a4.1,4.1,0,0,0-1.737-1.193,3.253,3.253,0,0,0-.736-.174,5.006,5.006,0,0,0-3.2.565l-.167.076v.015a5.654,5.654,0,0,0-1.875,1.7v-10.2a5.285,5.285,0,0,1,3.854-2.2,5.985,5.985,0,0,1,3.855,1.5m-1.811-4.391a19.3,19.3,0,0,0,1.319-3,6.7,6.7,0,0,1-.274,5.911,6.831,6.831,0,0,0-1.237-.522,7.125,7.125,0,0,0,.192-2.392m2.578,12.947a5.187,5.187,0,0,1,2.073-1.441,10.408,10.408,0,0,0,4.508-3.589,7.784,7.784,0,0,1-1.854,4.892,8.53,8.53,0,0,1-4.727,2.525Zm0-2.033a10.207,10.207,0,0,1,.456-1.967,9.453,9.453,0,0,1,5.288-5.655,13.08,13.08,0,0,0-2.038,5.04,5.34,5.34,0,0,1-.769,1.876,10.053,10.053,0,0,1-1.157.581,6.694,6.694,0,0,0-1.779,1.065Zm0-5.278c.021-.035.041-.07.064-.106A15.734,15.734,0,0,0,143.468,459a14.394,14.394,0,0,1,.541,5.371,9.974,9.974,0,0,0-3.051,3.961Zm9.776,3.913a7.485,7.485,0,0,0-.134.835.387.387,0,0,0,.193.378c-4.691,2.778-7.25,6.237-7.25,9.867a8.5,8.5,0,0,0,1.365,4.513,5.071,5.071,0,0,0-1.653-.844,9.149,9.149,0,0,1-.781-3.669,9.848,9.848,0,0,1,2.033-5.835,8.02,8.02,0,0,0,1.741-1.46,7.54,7.54,0,0,0,.991-1.4,23.947,23.947,0,0,1,3.494-2.383m-.473-1.682a2.805,2.805,0,0,1,.736-1.1.682.682,0,0,1,.282-.061.7.7,0,0,1,.638.42.712.712,0,0,1,.014.541.7.7,0,0,1-.368.392.546.546,0,0,1-.213.03,4.179,4.179,0,0,1-1.089-.217m-.838-2.341a2.764,2.764,0,0,1,.992-.874.708.708,0,0,1,.673,1.114.689.689,0,0,1-.455.283.207.207,0,0,1-.032,0,3.066,3.066,0,0,1-1.178-.525m1.4-4.122a1.649,1.649,0,0,1,1.349-.608,2.639,2.639,0,0,1,.822.136,2.664,2.664,0,0,0-1.343.733,2.884,2.884,0,0,0-.811,2.237c-.02,0-.04-.009-.061-.012a2.129,2.129,0,0,1,.044-2.485m3.252.275a1.248,1.248,0,0,0,.167.015h.013l.021,0h0c.235,0,.342-.174.466-.376a3.369,3.369,0,0,1,2.748-1.825,3.8,3.8,0,0,1,3.614,2.068c.016.047.033.093.053.139l.008.016c0,.014.011.026.016.04a.4.4,0,0,0,.035.076l.8,1.819a.476.476,0,0,0,.033.081c.009.014.015.031.023.047l0,.008.005.009a3.9,3.9,0,0,1-.841,4.229,3.132,3.132,0,0,1-2.28.943,4.821,4.821,0,0,1-.9-.095,1.627,1.627,0,0,0-.273-.037.414.414,0,0,0-.32.145,1.1,1.1,0,0,0-.119.154,2.143,2.143,0,0,1-1.66,1.061,2.339,2.339,0,0,1-1.964-1.061,1.475,1.475,0,0,0-.308-.715,1.455,1.455,0,0,0-.769-.5,1.488,1.488,0,0,0-.035-1.116,1.471,1.471,0,0,0-.8-.77,1.5,1.5,0,0,0-.171-1.633,2.412,2.412,0,0,1,.537-2.182,1.964,1.964,0,0,1,1.439-.575,3.449,3.449,0,0,1,.449.034m.934-2.7a3.384,3.384,0,0,1,2.522-1.353c.086-.005.17-.009.253-.009a3.069,3.069,0,0,1,2.877,2.162,4.747,4.747,0,0,0-3.218-1.065,3.954,3.954,0,0,0-2.9,1.537,2.53,2.53,0,0,1,.465-1.272m6.835,1.825a.744.744,0,0,1,.695-.484.738.738,0,0,1,.144.015c.005.014.009.028.016.041l1.377,3.132c.005.013.013.025.019.037a.743.743,0,0,1-.336.3.728.728,0,0,1-.3.066.747.747,0,0,1-.681-.448l-.917-2.088a.76.76,0,0,1-.015-.577m1.54-1.32a.75.75,0,0,1,.393-.419.727.727,0,0,1,.3-.065.748.748,0,0,1,.681.448l1.375,3.132a.762.762,0,0,1,.015.578.741.741,0,0,1-1.375.037L163.4,460.4a.76.76,0,0,1-.016-.577m2.392-.7a.727.727,0,0,1,.3-.065.745.745,0,0,1,.68.448l.918,2.088a.76.76,0,0,1-.378,1,.714.714,0,0,1-.3.066.754.754,0,0,1-.145-.016c0-.014-.009-.026-.015-.041l-1.376-3.132c-.005-.013-.013-.024-.02-.037a.744.744,0,0,1,.336-.305m.415-1.9a6.9,6.9,0,0,1-3.219-2.706c.108.02.219.035.335.046l4.867,2.2a8.194,8.194,0,0,1-1.984.464m-6.777-1.131c-2.35-1.495-3.082-4.821-3.533-7.561l1.367-.288.286,1.392,1.2-.253L158.451,448l1.414-.3c.033.151.069.3.1.445a37.034,37.034,0,0,0,1.762,5.681,8.144,8.144,0,0,0,2.857,3.439,10.025,10.025,0,0,1-5.172-1.164m-3.729-8.79c-.033-.221-.07-.454-.107-.7a64.433,64.433,0,0,0-1.243-6.737,7.838,7.838,0,0,0-2.512-4.015h.047c.173-.005.34-.008.5-.008a6.411,6.411,0,0,1,3.183.681c2.642,1.262,3.3,5.328,3.774,8.3.091.561.176,1.092.268,1.551.006.035.013.068.019.1l-1.41.3-.286-1.392-1.2.253.286,1.392Zm-11.664-2.291.579-1.319.484-1.1,9.778,4.412c.041.27.081.526.118.763.116.742.243,1.552.412,2.379ZM154.3,452.8l-.484-.218a.372.372,0,0,0-.293-.009.385.385,0,0,0-.213.2l-.736,1.676a.391.391,0,0,0,.194.513l.487.219-.767,1.746L148.179,455l.765-1.744.485.218a.382.382,0,0,0,.506-.2l.743-1.692a.4.4,0,0,0,.008-.3.386.386,0,0,0-.2-.216l-.484-.218.216-.491a.394.394,0,0,0,.008-.3.385.385,0,0,0-.2-.215l-1.671-.755a.381.381,0,0,0-.506.2l-.221.5-.484-.218a.381.381,0,0,0-.506.2l-.736,1.675a.392.392,0,0,0,.194.514l.487.219-.767,1.746L141.5,452l.766-1.745.485.219a.383.383,0,0,0,.506-.2l.742-1.691a.39.39,0,0,0-.194-.512l-.484-.219.842-1.918,10.981,4.955Zm-11.137-7.736a.747.747,0,0,1-.681.448.737.737,0,0,1-.3-.065.747.747,0,0,1-.393-.42.758.758,0,0,1,.016-.576l1.376-3.131a.74.74,0,0,1,1.374.036.756.756,0,0,1-.014.577Zm-2.06-.931c-.006.014-.011.028-.016.042a.729.729,0,0,1-.144.016.74.74,0,0,1-.3-.065.76.76,0,0,1-.377-1l.918-2.088a.744.744,0,0,1,.679-.448.732.732,0,0,1,.3.065.74.74,0,0,1,.335.3c-.006.014-.014.025-.02.039Zm-1.493-1.427a1.111,1.111,0,0,1-.227-1.224,1.084,1.084,0,0,1,.99-.652c.02,0,.041,0,.06,0Zm13.474-3a1.985,1.985,0,0,0-1.109.409l-.052.036a2.158,2.158,0,0,1-1.2.437,1.385,1.385,0,0,1-.465-.08,3.586,3.586,0,0,0,.994-.677,2.78,2.78,0,0,1,.675-.486.406.406,0,0,0,.261-.46c-.03-.15-.14-.329-.5-.329a4.435,4.435,0,0,0-1.029.137,3.946,3.946,0,0,1-1.316.259,2.492,2.492,0,0,1-.286-.016,4.913,4.913,0,0,0,.81-.542,3.376,3.376,0,0,1,.71-.463.413.413,0,0,0,.276-.47c-.024-.124-.121-.331-.49-.331a4.453,4.453,0,0,0-1.051.149,3.438,3.438,0,0,1-1.168.228,2.386,2.386,0,0,1-.4-.032,4.569,4.569,0,0,0,1.105-.685c.125-.093.259-.195.408-.3a2.7,2.7,0,0,1,1.438-.525c.051.039.1.079.15.119.227.185.525.4.856.714a14.05,14.05,0,0,1,1.637,2.9c-.088,0-.177.008-.263.014M173.5,455.422l-3.216,1.451-7.949-3.586a31.041,31.041,0,0,1-1.125-3.41Zm-3.755-5.669.04-.285a24.567,24.567,0,0,1,4.261-.408,15.287,15.287,0,0,1-.388,1.757,9.878,9.878,0,0,1-1.618,3.1l-3.622-1.635a6.149,6.149,0,0,0,1.328-2.525m-1.209-.791-.012-.008a.425.425,0,0,1-.2-.21,1.026,1.026,0,0,1,.009-.636,23.623,23.623,0,0,1,12.231,0,1.04,1.04,0,0,1,.009.63.423.423,0,0,1-.206.212l-.012.007c-.163-.045-.329-.088-.5-.129v-.009a26.863,26.863,0,0,0-10.744-.016l0,.009q-.291.068-.565.143m-.527-2.105a.417.417,0,0,0,.144.048,1.587,1.587,0,0,0,.2.015,1.193,1.193,0,0,0,.933-.484.392.392,0,0,0,0-.52.329.329,0,0,1-.079-.164.333.333,0,0,1,.2-.372.39.39,0,0,0,.2-.537.372.372,0,0,1-.031-.091.341.341,0,0,1,.051-.252.329.329,0,0,1,.6.125.367.367,0,0,1,0,.1.39.39,0,0,0,.1.3.385.385,0,0,0,.283.128.332.332,0,0,1,.323.272.323.323,0,0,1-.011.166.393.393,0,0,0,.191.471,1.7,1.7,0,0,0,.754.176,1.64,1.64,0,0,0,1.167-.484.393.393,0,0,0,.092-.409,1.482,1.482,0,0,1-.08-.32.631.631,0,0,1,.5-.622.383.383,0,0,0,.255-.18.392.392,0,0,0,.04-.312.615.615,0,0,1-.025-.177.625.625,0,1,1,1.25,0,.6.6,0,0,1-.026.177.394.394,0,0,0,.04.313.384.384,0,0,0,.255.179.632.632,0,0,1,.505.622,1.471,1.471,0,0,1-.081.319.391.391,0,0,0,.091.409,1.643,1.643,0,0,0,1.167.485,1.685,1.685,0,0,0,.734-.168.459.459,0,0,0,.047-.024.392.392,0,0,0,.164-.453.335.335,0,0,1,.312-.44.383.383,0,0,0,.283-.128.4.4,0,0,0,.1-.3.329.329,0,0,1,0-.1.332.332,0,0,1,.387-.266.336.336,0,0,1,.263.391.361.361,0,0,1-.031.091.393.393,0,0,0-.019.314.388.388,0,0,0,.217.224.336.336,0,0,1,.2.373.325.325,0,0,1-.08.163.394.394,0,0,0,0,.519,1.189,1.189,0,0,0,.932.484,1.628,1.628,0,0,0,.188-.012.383.383,0,0,0,.154-.043c-.083.153-.161.308-.23.463a24.572,24.572,0,0,0-12.4,0c-.07-.155-.149-.312-.233-.466m-1.37-4.468a23.832,23.832,0,0,1,3.583-.664,38.431,38.431,0,0,1,8.441,0,23.506,23.506,0,0,1,3.582.667,29.144,29.144,0,0,1-1.454,3.241.99.99,0,0,0-.186.18,1.408,1.408,0,0,0-.174.312.249.249,0,0,1-.055-.026,1.2,1.2,0,0,0,.059-.2,4.711,4.711,0,0,0-1.243-2.3.494.494,0,0,0-.058-.009,1.044,1.044,0,0,0-.147-.012,6.549,6.549,0,0,0-1.784,1.7,1.125,1.125,0,0,0-.019.168.932.932,0,0,1-.162.014.875.875,0,0,1-.456-.125,1.356,1.356,0,0,0-.731-1.575c0-.009,0-.018,0-.027a1.392,1.392,0,1,0-2.784,0v.027a1.415,1.415,0,0,0-.775,1.264,1.374,1.374,0,0,0,.045.311.877.877,0,0,1-.456.125.92.92,0,0,1-.162-.013,4.947,4.947,0,0,0-1.8-1.866.938.938,0,0,0-.147.012c-.019,0-.039,0-.058.008a1.088,1.088,0,0,0-.7.467,8.883,8.883,0,0,1-.54,1.836,1.094,1.094,0,0,0,.058.2.294.294,0,0,1-.055.026,1.4,1.4,0,0,0-.174-.313,1,1,0,0,0-.185-.179,28.972,28.972,0,0,1-1.457-3.248m-1.26-2.346a.689.689,0,0,1,.4.217,1.85,1.85,0,0,1,.193.449.384.384,0,0,0,.315.275,1.886,1.886,0,0,0,.264.019,1.658,1.658,0,0,0,1.271-.565.393.393,0,0,0,.009-.533.532.532,0,0,1,.192-.844.385.385,0,0,0,.217-.223.4.4,0,0,0-.017-.313.567.567,0,0,1-.049-.143.535.535,0,0,1,.081-.4.521.521,0,0,1,.333-.222.528.528,0,0,1,.609.42.543.543,0,0,1,.006.151.39.39,0,0,0,.1.3.381.381,0,0,0,.284.128.524.524,0,0,1,.509.428.533.533,0,0,1-.017.265.391.391,0,0,0,.192.47,2.038,2.038,0,0,0,.907.212,1.979,1.979,0,0,0,1.4-.575.393.393,0,0,0,.073-.479.912.912,0,0,1,.642-1.268.387.387,0,0,0,.255-.181.4.4,0,0,0,.039-.313.89.89,0,0,1-.037-.254.894.894,0,1,1,1.787,0,.94.94,0,0,1-.037.257.394.394,0,0,0,.04.312.388.388,0,0,0,.255.179.911.911,0,0,1,.632,1.289.391.391,0,0,0,.075.448,1.979,1.979,0,0,0,1.407.584,2.033,2.033,0,0,0,.885-.2.39.39,0,0,0,.214-.48.536.536,0,0,1-.017-.265.524.524,0,0,1,.509-.429.382.382,0,0,0,.283-.127.394.394,0,0,0,.1-.3.54.54,0,0,1,.007-.151.519.519,0,0,1,.942-.2.536.536,0,0,1,.081.4.577.577,0,0,1-.05.144.394.394,0,0,0-.016.313.387.387,0,0,0,.216.223.531.531,0,0,1,.192.844.392.392,0,0,0,0,.519,1.713,1.713,0,0,0,1.547.56.386.386,0,0,0,.315-.274,1.8,1.8,0,0,1,.193-.45.689.689,0,0,1,.4-.217,14.765,14.765,0,0,0-.738,1.692,34.611,34.611,0,0,0-16.654,0,14.7,14.7,0,0,0-.736-1.688m6.7-5.668c1.565-.06,3.166-.06,4.731,0a43.934,43.934,0,0,1,7.125.793,25.541,25.541,0,0,1-.717,4.148,1.373,1.373,0,0,0-.713.459,1.868,1.868,0,0,0-.238.449.911.911,0,0,1-.429-.132,40.515,40.515,0,0,1-.574-2.546,1.278,1.278,0,0,0-.824-.548,1.335,1.335,0,0,0-.242-.023,1.292,1.292,0,0,0-1.263,1.06h0a1.3,1.3,0,0,0-.9,1.005c-.008.044-.013.087-.017.131a1.341,1.341,0,0,0,0,.147,1.3,1.3,0,0,1-.307.037,1.2,1.2,0,0,1-.683-.207,1.74,1.74,0,0,0,.059-.449,1.687,1.687,0,0,0-.984-1.537c0-.033,0-.066,0-.1a1.661,1.661,0,1,0-3.321,0c0,.033,0,.067,0,.1a1.686,1.686,0,0,0-.984,1.537,1.705,1.705,0,0,0,.06.45,1.207,1.207,0,0,1-.683.206,1.3,1.3,0,0,1-.307-.037,1.332,1.332,0,0,0,0-.147c0-.044-.009-.088-.017-.131a1.3,1.3,0,0,0-.9-1.005h0a1.294,1.294,0,0,0-1.264-1.06,1.284,1.284,0,0,0-1.066.572,1.312,1.312,0,0,0-.2.977h0a1.315,1.315,0,0,0-.469,1.269,1.379,1.379,0,0,0,.093.3.908.908,0,0,1-.428.132,1.841,1.841,0,0,0-.238-.449,1.379,1.379,0,0,0-.713-.459,25.68,25.68,0,0,1-.717-4.147,44.034,44.034,0,0,1,7.125-.794m-7.49.076a10.143,10.143,0,0,0-.54-2.019.568.568,0,0,1,.266.254c.111.231.346.721.346.721a.385.385,0,0,0,.264.21,1.455,1.455,0,0,0,1.53-.505.392.392,0,0,0,.037-.518.719.719,0,0,1,.346-1.119.386.386,0,0,0,.234-.206.391.391,0,0,0,.007-.313.7.7,0,1,1,1.343-.153.392.392,0,0,0,.074.305.382.382,0,0,0,.273.15.71.71,0,0,1,.642.632.735.735,0,0,1-.051.355.391.391,0,0,0,.14.473.37.37,0,0,0,.071.038,2.231,2.231,0,0,0,2.621-.5.394.394,0,0,0,.035-.423,1.162,1.162,0,0,1-.114-.505,1.192,1.192,0,0,1,.037-.29,1.162,1.162,0,0,1,.9-.856.389.389,0,0,0,.3-.305.39.39,0,0,0-.009-.187,1.2,1.2,0,0,1-.047-.33,1.17,1.17,0,0,1,.1-.465,1.151,1.151,0,0,1,2.211.466,1.168,1.168,0,0,1-.047.331.4.4,0,0,0,.041.312.385.385,0,0,0,.255.178,1.176,1.176,0,0,1,.829,1.633.391.391,0,0,0,.027.439,2.229,2.229,0,0,0,2.617.5.389.389,0,0,0,.243-.362.382.382,0,0,0-.034-.16.734.734,0,0,1-.046-.345.71.71,0,0,1,.643-.632.382.382,0,0,0,.273-.149.4.4,0,0,0,.074-.305.721.721,0,0,1-.008-.2.705.705,0,1,1,1.4.158.76.76,0,0,1-.051.2.394.394,0,0,0,.006.313.388.388,0,0,0,.234.206.715.715,0,0,1,.49.759.723.723,0,0,1-.143.359.392.392,0,0,0,.036.519,1.458,1.458,0,0,0,1.53.5.382.382,0,0,0,.263-.209s.234-.491.347-.722a.576.576,0,0,1,.266-.254,10.19,10.19,0,0,0-.54,2.02,53.648,53.648,0,0,0-19.71,0m.551-3.2c.784-2.9,3.933-5.823,9.205-5.86l.1,0,.1,0c5.272.037,8.421,2.96,9.205,5.86a6.878,6.878,0,0,1,.182,1.013c-.015.027-.031.05-.044.078l-.263.547a.543.543,0,0,1-.432-.139,1.505,1.505,0,0,0-.571-1.86c0-.016,0-.033.005-.049a1.472,1.472,0,1,0-2.925-.329c0,.015,0,.032,0,.048a1.489,1.489,0,0,0-.978,1.242,1.555,1.555,0,0,0,0,.335,1.528,1.528,0,0,1-1.267-.206,1.962,1.962,0,0,0-1.094-2.4c0-.057.007-.114.007-.17a1.945,1.945,0,0,0-1.282-1.833,1.869,1.869,0,0,0-1.276,0,1.941,1.941,0,0,0-1.125,1.062,1.969,1.969,0,0,0-.157.774c0,.057,0,.113.007.169a1.961,1.961,0,0,0-1.094,2.4,1.532,1.532,0,0,1-1.268.206,1.452,1.452,0,0,0,0-.334,1.487,1.487,0,0,0-.977-1.243.464.464,0,0,0,0-.048,1.472,1.472,0,1,0-2.925.329c0,.016,0,.032.007.048a1.509,1.509,0,0,0-.572,1.861.543.543,0,0,1-.432.139c-.079-.165-.194-.406-.262-.547-.013-.027-.03-.051-.044-.077a6.885,6.885,0,0,1,.182-1.015m9.3-8.782a1.04,1.04,0,1,1-1.025,1.04,1.035,1.035,0,0,1,1.025-1.04m6.072,29.788-3.622,1.634a9.878,9.878,0,0,1-1.6-3.074,15.592,15.592,0,0,1-.388-1.755,24.406,24.406,0,0,1,4.262.418l.032.233.008.041a6.108,6.108,0,0,0,1.311,2.5M174.443,455l-1.682-.759a10.675,10.675,0,0,0,1.628-3.183c.026-.083.055-.187.085-.3.031.115.06.219.086.3a10.639,10.639,0,0,0,1.612,3.162Zm13.3-5.151a30.9,30.9,0,0,1-1.12,3.407l-15.228,6.87-1.064-2.421Zm1.235-1.7c.036-.145.07-.294.1-.445l1.414.3-.286,1.392,1.2.253.284-1.392,1.368.288c-.45,2.74-1.184,6.067-3.533,7.561a10.027,10.027,0,0,1-5.172,1.164,8.153,8.153,0,0,0,2.857-3.44,36.975,36.975,0,0,0,1.762-5.68m.37-1.724.007-.037c.092-.46.178-.991.267-1.552.479-2.969,1.133-7.036,3.774-8.3a6.413,6.413,0,0,1,3.183-.681c.157,0,.323,0,.5.008h.046a7.843,7.843,0,0,0-2.512,4.015,65.033,65.033,0,0,0-1.243,6.736c-.037.245-.073.478-.107.7l-1.312-.276.286-1.392-1.2-.252-.286,1.392-1.411-.3c0-.021.009-.041.013-.063m8.741-10.34c.05-.041.1-.081.152-.121a2.676,2.676,0,0,1,1.5.527c.15.107.285.209.409.3a4.5,4.5,0,0,0,1.1.683,2.272,2.272,0,0,1-.393.034,3.424,3.424,0,0,1-1.167-.228,4.483,4.483,0,0,0-1.051-.149c-.37,0-.466.207-.49.331a.413.413,0,0,0,.276.47,3.4,3.4,0,0,1,.709.462,4.9,4.9,0,0,0,.81.543,2.463,2.463,0,0,1-.284.016h0a3.957,3.957,0,0,1-1.317-.259,4.428,4.428,0,0,0-1.027-.137c-.356,0-.466.179-.5.329a.407.407,0,0,0,.261.46,2.794,2.794,0,0,1,.676.485,3.571,3.571,0,0,0,.995.678,1.393,1.393,0,0,1-.466.08,2.16,2.16,0,0,1-1.2-.437l-.052-.037a1.994,1.994,0,0,0-1.109-.408c-.086-.006-.174-.012-.263-.014a12.992,12.992,0,0,1,1.809-3.107c.238-.206.452-.362.624-.5M203.8,442.6l1.022,2.326.042.1-11.3,5.1c.165-.816.291-1.616.406-2.349.038-.245.08-.512.123-.793Zm.53-1.248a.748.748,0,0,1,.392-.419.736.736,0,0,1,.3-.065.744.744,0,0,1,.681.448l1.377,3.132a.756.756,0,0,1,.015.575.747.747,0,0,1-.393.42.737.737,0,0,1-.3.065.745.745,0,0,1-.681-.448l-1.375-3.132a.759.759,0,0,1-.016-.577m2.389-.694a.727.727,0,0,1,.3-.066.744.744,0,0,1,.679.448l.918,2.088a.759.759,0,0,1-.378,1,.709.709,0,0,1-.445.05c-.005-.014-.009-.028-.016-.041L206.4,441c0-.013-.014-.025-.02-.039a.746.746,0,0,1,.335-.3m1.792.17a1.086,1.086,0,0,1,.99.651,1.111,1.111,0,0,1-.227,1.225l-.823-1.873c.02,0,.04,0,.061,0m-2.878,9.447a.383.383,0,0,0,.506.2l.483-.219L207.39,452l-4.312,1.93-.768-1.746.486-.219a.384.384,0,0,0,.2-.216.39.39,0,0,0-.007-.3l-.737-1.675a.38.38,0,0,0-.506-.2l-.483.218-.22-.5a.382.382,0,0,0-.506-.2l-1.671.755a.381.381,0,0,0-.2.215.394.394,0,0,0,.008.3l.216.491-.484.218a.381.381,0,0,0-.2.216.392.392,0,0,0,.008.3l.743,1.692a.381.381,0,0,0,.505.2l.484-.218.766,1.744-4.312,1.93-.767-1.746.486-.219a.391.391,0,0,0,.194-.513l-.736-1.676a.39.39,0,0,0-.213-.2.375.375,0,0,0-.293.009l-.484.218-.837-1.907,10.982-4.955.842,1.918-.484.219a.39.39,0,0,0-.195.512Zm-22.878,6.959a8.2,8.2,0,0,1-2.016-.477l4.827-2.178a4.119,4.119,0,0,0,.409-.051,6.9,6.9,0,0,1-3.22,2.706m-.629,2.278a.746.746,0,0,1,.68-.448.717.717,0,0,1,.3.066.734.734,0,0,1,.336.3c-.006.013-.015.024-.02.037l-1.375,3.132c-.006.015-.01.027-.016.04a.692.692,0,0,1-.145.017.717.717,0,0,1-.3-.066.76.76,0,0,1-.378-1Zm2,.276a.745.745,0,0,1,.681-.448.719.719,0,0,1,.3.066.744.744,0,0,1,.392.418.76.76,0,0,1-.015.577l-1.376,3.132a.741.741,0,0,1-1.375-.037.758.758,0,0,1,.016-.578Zm2.061.93c.005-.013.01-.027.016-.041a.74.74,0,0,1,.839.468.763.763,0,0,1-.014.577l-.918,2.088a.746.746,0,0,1-.68.448.742.742,0,0,1-.639-.37c.006-.012.014-.024.019-.037Zm1.481,1.454a.434.434,0,0,0,.037-.076c0-.015.011-.028.016-.041l.006-.016c.02-.047.039-.093.055-.142a3.8,3.8,0,0,1,3.612-2.065,3.37,3.37,0,0,1,2.748,1.825c.124.2.231.376.466.376l.021,0h.013a1.248,1.248,0,0,0,.167-.015,3.461,3.461,0,0,1,.449-.034,1.963,1.963,0,0,1,1.438.575,2.407,2.407,0,0,1,.537,2.182,1.5,1.5,0,0,0-.169,1.633,1.466,1.466,0,0,0-.8.77,1.488,1.488,0,0,0-.037,1.116,1.457,1.457,0,0,0-.769.5,1.483,1.483,0,0,0-.308.713,2.342,2.342,0,0,1-1.964,1.062,2.138,2.138,0,0,1-1.659-1.061,1.18,1.18,0,0,0-.121-.154.411.411,0,0,0-.319-.145,1.61,1.61,0,0,0-.272.037,4.839,4.839,0,0,1-.9.095,3.136,3.136,0,0,1-2.281-.943,3.9,3.9,0,0,1-.837-4.233l0-.005,0,0c.009-.016.016-.034.026-.05a.482.482,0,0,0,.033-.082Zm3.685-4.2a3.384,3.384,0,0,1,2.523,1.353,2.553,2.553,0,0,1,.466,1.272,3.956,3.956,0,0,0-2.9-1.537c-.09-.005-.179-.008-.269-.008a4.782,4.782,0,0,0-2.95,1.073,3.051,3.051,0,0,1,3.13-2.153m5.36,3.167a1.649,1.649,0,0,1,1.348.608,2.131,2.131,0,0,1,.044,2.485.6.6,0,0,0-.062.013,2.879,2.879,0,0,0-.81-2.238,2.665,2.665,0,0,0-1.343-.733,2.635,2.635,0,0,1,.822-.136m2.75,4.73a3.061,3.061,0,0,1-1.178.525.227.227,0,0,1-.033,0,.7.7,0,0,1-.455-.283.715.715,0,0,1-.124-.527.705.705,0,0,1,.688-.6.741.741,0,0,1,.109.008,2.777,2.777,0,0,1,.992.875m-1.927,2.558a.542.542,0,0,1-.213-.03.7.7,0,0,1-.368-.392.71.71,0,0,1,.013-.54.7.7,0,0,1,.639-.421.676.676,0,0,1,.283.062,2.8,2.8,0,0,1,.734,1.1,4.148,4.148,0,0,1-1.088.217m4.11,3.849a7.533,7.533,0,0,0,.991,1.4,8.016,8.016,0,0,0,1.741,1.46,9.849,9.849,0,0,1,2.033,5.835,9.149,9.149,0,0,1-.781,3.669,5.063,5.063,0,0,0-1.653.844,8.5,8.5,0,0,0,1.366-4.513c0-3.63-2.559-7.089-7.25-9.867a.388.388,0,0,0,.193-.378,7.69,7.69,0,0,0-.135-.834,23.936,23.936,0,0,1,3.494,2.383m4.209-.428a5.14,5.14,0,0,1,2.072,1.448v2.381a8.515,8.515,0,0,1-4.721-2.521,7.782,7.782,0,0,1-1.859-4.9,10.389,10.389,0,0,0,4.508,3.589m-3.672-8.213a9.451,9.451,0,0,1,5.278,5.624,10.122,10.122,0,0,1,.466,2v.935a6.683,6.683,0,0,0-1.777-1.064,10.119,10.119,0,0,1-1.158-.58,5.344,5.344,0,0,1-.769-1.877,13.055,13.055,0,0,0-2.04-5.04M205.419,459a15.735,15.735,0,0,0,2.445,6.871l.063.105v2.354a9.976,9.976,0,0,0-3.05-3.96,14.392,14.392,0,0,1,.541-5.37m2.572,18.464a3.271,3.271,0,0,0,3.394,2.753,2.91,2.91,0,0,0,3.141-2.427l0,0a1.215,1.215,0,0,0,0-.167v-2.759a4.392,4.392,0,0,1,1.612,1.91,4.336,4.336,0,0,1,.228.944,6.022,6.022,0,0,1-.29,2.742,6.761,6.761,0,0,1-1.92,2.827.113.113,0,0,0-.01-.016.381.381,0,0,0-.449-.118,23.864,23.864,0,0,1-6.5,1.2c-.231.019-.449.047-.657.08a9.828,9.828,0,0,0,.635-3.457,10.216,10.216,0,0,0-1.424-5.131,10.342,10.342,0,0,0,2.174.629v.782a.387.387,0,0,0,.064.213m4.9-1.588a2.823,2.823,0,0,0-1.1-.142v-1.708a5.554,5.554,0,0,1,1.974.41V476.3a3.107,3.107,0,0,0-.87-.428m-1.706.643a.383.383,0,0,0,.353.047,1.806,1.806,0,0,1,1.118.05c.94.306,1.085.82,1.105,1.007v.093a2.133,2.133,0,0,1-2.378,1.725,2.544,2.544,0,0,1-2.691-2.6,2.821,2.821,0,0,1,2-2.653,2.487,2.487,0,0,1,.325-.091v2.1a.389.389,0,0,0,.166.317m-2.494-11.788a5.987,5.987,0,0,1,3.855-1.5,5.292,5.292,0,0,1,3.855,2.2v10.207a5.7,5.7,0,0,0-1.875-1.694v-.02l-.227-.1a4.91,4.91,0,0,0-3.153-.536,3.253,3.253,0,0,0-.719.172,4.1,4.1,0,0,0-1.737,1.193Zm.494-7.388a19.125,19.125,0,0,0,1.318,3,7.147,7.147,0,0,0,.192,2.392,6.771,6.771,0,0,0-1.227.517c-.069-.115-.136-.237-.2-.364a6.849,6.849,0,0,1-.084-5.543m2.38,1.175a25.043,25.043,0,0,0,.7-7.776,16.984,16.984,0,0,1,2.248,7.908c-.227.563-.487,1.17-.784,1.825a7.877,7.877,0,0,0-.629,2.016,4.5,4.5,0,0,0-.559-.036,6.238,6.238,0,0,0-1.1.1,8.065,8.065,0,0,1,.117-4.034m4.93-3.244c.576,2.491.829,5.526-.318,8-.086.186-.176.358-.269.52a5.789,5.789,0,0,0-2.05-1.147,7.02,7.02,0,0,1,.572-1.85,37,37,0,0,0,2.065-5.526M196.061,469.25a.691.691,0,0,1,.98-.1,2.825,2.825,0,0,1,.428,1.259c-.086,0-.181.006-.281.006a2.03,2.03,0,0,1-1.025-.166.714.714,0,0,1-.1-.995m-.732,1.175.03.052a2.087,2.087,0,0,1-1.852,1.632,1.68,1.68,0,0,1-1.383-.648,2.733,2.733,0,0,1-.42-.676,2.649,2.649,0,0,0,1.441.526,2.8,2.8,0,0,0,2.184-.887m-32.176-4.642a3.109,3.109,0,0,1-.517,3.8,3.452,3.452,0,0,1-2.364,1.013,2.5,2.5,0,0,1-1.553-.516c.078,0,.159.006.243.006a3.874,3.874,0,0,0,2.817-1.164,4.89,4.89,0,0,0,1.375-3.138m23.954,3.138a3.873,3.873,0,0,0,2.817,1.164c.084,0,.165,0,.244-.006a2.51,2.51,0,0,1-1.554.516,3.448,3.448,0,0,1-2.363-1.013,3.108,3.108,0,0,1-.518-3.8,4.89,4.89,0,0,0,1.375,3.138m-2.837-4.422.006-.005,0,.007h-.011m-4.924-6.691a1.867,1.867,0,0,1,1.38.059,1.888,1.888,0,0,1,.9.864l-.7,1.59-.424.964v0l-.2.463a1.872,1.872,0,0,1-2.206-1.1l.431-.981Zm-1.857,2.314-2.1-.949,3.143-1.418Zm-9.959-.765-.275-.626a1.892,1.892,0,0,1,.9-.864,1.867,1.867,0,0,1,1.38-.059l1.025,2.332.224.508a1.872,1.872,0,0,1-2.207,1.1l-.2-.462v0Zm.857,3.144a2.615,2.615,0,0,0,.674.088,2.587,2.587,0,0,0,1.072-.232,2.68,2.68,0,0,0,1.368-1.431l2.941-1.327,2.942,1.327a2.681,2.681,0,0,0,1.368,1.431,2.582,2.582,0,0,0,1.072.232,2.613,2.613,0,0,0,.673-.088,1.514,1.514,0,0,0,.776.805,1.481,1.481,0,0,0,.614.132c.016,0,.03,0,.044,0a1.568,1.568,0,0,0,.086.342,1.537,1.537,0,0,0,.251.431,63.27,63.27,0,0,0-15.653,0,1.492,1.492,0,0,0,.336-.773c.016,0,.03,0,.045,0a1.489,1.489,0,0,0,.614-.132,1.515,1.515,0,0,0,.776-.805m-3.783,2,0-.006.006,0-.011,0m9.838,0a60.327,60.327,0,0,1,10.61.918,5.53,5.53,0,0,0-.37,1.033,60.811,60.811,0,0,0-20.48,0,5.508,5.508,0,0,0-.37-1.033,60.318,60.318,0,0,1,10.609-.918m-23.026,5.9a2.825,2.825,0,0,1,.428-1.259.685.685,0,0,1,.438-.157.692.692,0,0,1,.543.262.713.713,0,0,1-.1.994,2.023,2.023,0,0,1-1.024.166c-.1,0-.2,0-.281-.006m4.325.908a2.651,2.651,0,0,0,1.441-.526,2.78,2.78,0,0,1-.42.676,1.691,1.691,0,0,1-1.276.651h0c-.035,0-.071,0-.107,0a2.087,2.087,0,0,1-1.851-1.632l.031-.052a2.8,2.8,0,0,0,2.184.887m.827,21.365q-1.206-.439-2.332-.942a4.576,4.576,0,0,1,.743-.062,3.455,3.455,0,0,1,.519.035,2.049,2.049,0,0,1,.787.515,1.528,1.528,0,0,1,.157.2,1.341,1.341,0,0,1,.126.25m8.876,2.228a50.116,50.116,0,0,1-5.162-1.069,2.4,2.4,0,0,1,.188-.26,1.937,1.937,0,0,1,1.135-.7,2.05,2.05,0,0,1,.608-.019,5.7,5.7,0,0,1,1.362.485,4.231,4.231,0,0,1,1.869,1.56m23.16-1.069a50.173,50.173,0,0,1-5.163,1.069,4.232,4.232,0,0,1,1.869-1.56,5.7,5.7,0,0,1,1.363-.485,2.044,2.044,0,0,1,.607.019,1.929,1.929,0,0,1,1.135.7,2.494,2.494,0,0,1,.188.259m6.045-2.1q-1.126.5-2.332.942a1.308,1.308,0,0,1,.127-.251,1.435,1.435,0,0,1,.154-.2,2.059,2.059,0,0,1,.787-.516,3.523,3.523,0,0,1,.521-.035,4.577,4.577,0,0,1,.743.062m-1.446-.79-.062.025,0,0a2.386,2.386,0,0,0-1.66,2q-1.029.349-2.106.653a2.751,2.751,0,0,0-2.792-1.538l-.006,0h-.009c-.546.083-2.251.4-2.8.51l-.194.04a41.032,41.032,0,0,1-9.11.964h-.042a41.025,41.025,0,0,1-9.11-.964l-.195-.04c-.544-.11-2.253-.428-2.8-.511h-.008l-.006,0a2.75,2.75,0,0,0-2.793,1.538q-1.076-.3-2.1-.653a2.382,2.382,0,0,0-1.632-1.991.464.464,0,0,0-.058-.024l-.039-.015a31.456,31.456,0,0,1-7.617-4.186,2.267,2.267,0,0,0-1.363-.434c-.076,0-.151,0-.226.011a8.362,8.362,0,0,1-2.164-5.366c0-3.608,2.822-7.078,7.965-9.811a2.442,2.442,0,0,0,.634-.143,2.742,2.742,0,0,0,2.418,1.869c.054,0,.107.005.159.005h0a2.409,2.409,0,0,0,1.857-.921,3.637,3.637,0,0,0,.727-1.424,3.239,3.239,0,0,0,2.2.826,4.211,4.211,0,0,0,2.895-1.23,3.736,3.736,0,0,0,1.155-2.923,60.068,60.068,0,0,1,20.244,0,3.741,3.741,0,0,0,1.153,2.924,4.215,4.215,0,0,0,2.895,1.229,3.243,3.243,0,0,0,2.2-.826,3.634,3.634,0,0,0,.727,1.424,2.408,2.408,0,0,0,1.857.921c.052,0,.105,0,.16-.005a2.743,2.743,0,0,0,2.417-1.869,2.443,2.443,0,0,0,.633.143c5.143,2.734,7.965,6.2,7.965,9.811a8.358,8.358,0,0,1-2.164,5.366c-.074-.007-.149-.011-.225-.011a2.275,2.275,0,0,0-1.364.434,31.46,31.46,0,0,1-7.62,4.187m15.675-3.521c-.494-.048-.966-.072-1.4-.072a8.325,8.325,0,0,0-2.378.3,7.614,7.614,0,0,0-1.33-.838,4.453,4.453,0,0,1,3.5-1.693,31.988,31.988,0,0,0,5.533-.873,10.94,10.94,0,0,1-3.917,3.176m10.236.438a.38.38,0,0,0-.4-.247c-.014,0-1.442.159-3.739.159-1.558,0-3.135-.072-4.7-.212a12.978,12.978,0,0,0,2.978-2.655,7.473,7.473,0,0,0,3.907-7.064.385.385,0,0,0,.016-.1V465.307a.387.387,0,0,0-.067-.218,6.141,6.141,0,0,0-.617-.749c.122-.206.243-.43.358-.674,1.53-3.241.834-7.3-.019-10.135a.383.383,0,0,0-.748.068,18.181,18.181,0,0,1-.892,3.283,20.23,20.23,0,0,0-3.293-8.306.381.381,0,0,0-.483-.141.392.392,0,0,0-.206.464,11.912,11.912,0,0,1,.337,2.48,25.128,25.128,0,0,1-.721,6.957c-.053.224-.1.439-.136.649a8.17,8.17,0,0,1-1-2.9.389.389,0,0,0-.285-.4.381.381,0,0,0-.443.207c-1.712,3.611-1.075,6.171-.136,7.754a5.405,5.405,0,0,0-.79.648.385.385,0,0,0-.1.175,14.683,14.683,0,0,1-1.738-5.388,8.365,8.365,0,0,1,.064-2.553.391.391,0,0,0-.253-.463.383.383,0,0,0-.474.222,18.131,18.131,0,0,0-1.481,7.5,13.357,13.357,0,0,0-3.145-1.477.382.382,0,0,0-.459.2.4.4,0,0,0,.119.491,5.448,5.448,0,0,1,1.114,1.276,12.616,12.616,0,0,1,1.785,4.559,6.369,6.369,0,0,0,.225.82,8.663,8.663,0,0,1-2.375-2.965.383.383,0,0,0-.738.126,11.153,11.153,0,0,0,.442,4,26.288,26.288,0,0,0-2.707-1.717,8.022,8.022,0,0,0,.956-.293.389.389,0,0,0,.22-.5,6.662,6.662,0,0,0-.626-1.255,6.235,6.235,0,0,0,1.373-.776.391.391,0,0,0,.085-.542,4.967,4.967,0,0,0-1.416-1.39,2.8,2.8,0,0,0-.248-3.072,2.4,2.4,0,0,0-1.951-.906,3.514,3.514,0,0,0-1.6.4,3.337,3.337,0,0,0-.613-1.893,4.158,4.158,0,0,0-3.093-1.676c-.1-.007-.206-.011-.308-.011-1.754,0-3.069,1.106-3.751,3.089a1.511,1.511,0,0,0-.389-.255,1.48,1.48,0,0,0-.614-.132c-.015,0-.03,0-.044,0a1.532,1.532,0,0,0-.085-.34,1.506,1.506,0,0,0-.8-.85,1.476,1.476,0,0,0-.614-.133,1.493,1.493,0,0,0-.849.266,1.492,1.492,0,0,0-.537-.41,1.469,1.469,0,0,0-.614-.133,1.491,1.491,0,0,0-.5.089,2.678,2.678,0,0,0-.3-.465,8.892,8.892,0,0,0,.979.125h.027a.38.38,0,0,0,.065-.006c.2.009.487.019.842.019,1.491,0,4.255-.167,6.015-1.287a8.49,8.49,0,0,0,3.272-5.172l.826,1.878a.38.38,0,0,0,.213.2.371.371,0,0,0,.293-.008l.484-.218.424.966-.488.22a.391.391,0,0,0-.194.512l1.079,2.455a.385.385,0,0,0,.35.231.378.378,0,0,0,.155-.033l5.014-2.244a.383.383,0,0,0,.2-.216.393.393,0,0,0-.006-.3l-1.079-2.456a.383.383,0,0,0-.506-.2l-.485.219-.43-.981.484-.218a.379.379,0,0,0,.2-.216.386.386,0,0,0-.008-.3l-.215-.491.971-.438.22.5a.382.382,0,0,0,.506.2l.483-.218.424.966-.486.219a.385.385,0,0,0-.2.216.394.394,0,0,0,.008.3l1.079,2.455a.381.381,0,0,0,.5.2l5.014-2.244a.392.392,0,0,0,.2-.216.4.4,0,0,0-.007-.3l-1.079-2.455a.387.387,0,0,0-.213-.206.38.38,0,0,0-.294.008l-.484.219-.43-.981.484-.219a.391.391,0,0,0,.194-.513l-.8-1.829a1.474,1.474,0,0,0,1.392.09,1.516,1.516,0,0,0,.8-.85,1.649,1.649,0,0,0,.085-.34c.015,0,.029,0,.044,0a1.489,1.489,0,0,0,.614-.132,1.536,1.536,0,0,0,.891-1.292,1.889,1.889,0,0,0,.755-2.378,1.851,1.851,0,0,0-1.69-1.111,1.807,1.807,0,0,0-.563.089,3.693,3.693,0,0,1-2.924-.049,1.479,1.479,0,0,0-.613.132,1.517,1.517,0,0,0-.8.85,1.553,1.553,0,0,0-.079.8l-9.3,4.2c.308-1.991.688-4.37,1.01-5.6.061,0,.137-.006.226-.006.132,0,.267.006.4.016a1.254,1.254,0,0,1,.731.273l.058.04a2.894,2.894,0,0,0,1.631.57,2.275,2.275,0,0,0,1.763-.885.394.394,0,0,0,.02-.424.382.382,0,0,0-.376-.188,1.7,1.7,0,0,1-.185.012,1.359,1.359,0,0,1-.794-.266,4.157,4.157,0,0,0,.946.117h0a2.2,2.2,0,0,0,1.718-.642.4.4,0,0,0,.056-.406.382.382,0,0,0-.333-.231,1.972,1.972,0,0,1-.82-.214,3.6,3.6,0,0,0,.578.048,2.576,2.576,0,0,0,2-.838.391.391,0,0,0,.033-.431.385.385,0,0,0-.381-.2,3.191,3.191,0,0,1-.393.027,2.268,2.268,0,0,1-1.518-.679c-.128-.1-.268-.2-.421-.312a3.6,3.6,0,0,0-.955-.494.073.073,0,0,0,.013-.005s-.036-.009-.1-.023a3.222,3.222,0,0,0-.826-.146,11.66,11.66,0,0,0-1.215-.1c-.108,0-.213-.005-.315-.006h-.42l-.174,0c-.041,0-.082,0-.12,0-.058,0-.114,0-.168.008l-.109.006-.17.013-.092.008c-.069.006-.134.014-.2.022l-.049.005c-.081.01-.16.022-.238.034l-.06.011-.167.03-.082.018-.138.03-.087.022-.126.032-.087.026-.121.036-.088.028-.117.04-.086.03c-.04.015-.08.03-.118.045l-.085.032-.122.051-.079.033-.136.06-.069.03-.206.1c-3.558,1.7-3.892,7.52-4.467,10.4-.121.612-.237,1.191-.368,1.727q-.119.482-.232.916l-6.751,3.047a5.49,5.49,0,0,1-1.279-2.26c.1.026.2.053.3.081l.009,0a.386.386,0,0,0,.1.013.434.434,0,0,0,.077-.009c.015,0,.03-.007.045-.012h0a1.245,1.245,0,0,0,.77-.684,1.829,1.829,0,0,0,0-1.242,11.768,11.768,0,0,1,1.418-2.293.393.393,0,0,0,.04-.425.381.381,0,0,0-.371-.206,1.289,1.289,0,0,0-.387.1c.379-.8.714-1.594,1.008-2.382l.037,0a.385.385,0,0,0,.368-.279A18.345,18.345,0,0,1,185,438.92a.393.393,0,0,0-.042-.464.379.379,0,0,0-.452-.09,2.958,2.958,0,0,0-.335.2,26.136,26.136,0,0,0,.506-3.257.379.379,0,0,0,.184-.072.388.388,0,0,0,.153-.287,11.3,11.3,0,0,1,1.114-3.58.393.393,0,0,0-.034-.414.379.379,0,0,0-.385-.145,1.272,1.272,0,0,0-.91.808c-.055.016-.116.038-.18.064a6.451,6.451,0,0,0-.135-.636c-.943-3.487-4.347-5.937-8.676-6.365a1.823,1.823,0,0,0-.873-2.917v-1.547h.892v-1h-.892v-.847h-.988v.847h-.893v1h.892v1.547a1.824,1.824,0,0,0-.874,2.917c-4.328.428-7.733,2.878-8.675,6.365a6.356,6.356,0,0,0-.136.637,1.8,1.8,0,0,0-.179-.063,1.276,1.276,0,0,0-.911-.808.381.381,0,0,0-.385.146.393.393,0,0,0-.034.414,11.237,11.237,0,0,1,1.114,3.58.391.391,0,0,0,.155.287.384.384,0,0,0,.183.073,25.067,25.067,0,0,0,.369,2.63c.039.2.083.406.129.618a2.881,2.881,0,0,0-.327-.194.379.379,0,0,0-.452.09.393.393,0,0,0-.042.464,18.863,18.863,0,0,1,1.585,3.3.294.294,0,0,0,0,.058.385.385,0,0,0,.378.327h.016a.19.19,0,0,0,.031,0c.287.766.618,1.563,1.009,2.382a1.3,1.3,0,0,0-.382-.1.379.379,0,0,0-.37.206.392.392,0,0,0,.041.425,11.764,11.764,0,0,1,1.417,2.292,1.829,1.829,0,0,0,0,1.242,1.249,1.249,0,0,0,.772.684l.019.005.049.011.024,0,.031,0,.016,0,.023,0a.365.365,0,0,0,.052-.009l.012,0c.119-.034.241-.066.365-.1a5.5,5.5,0,0,1-1.3,2.3l-6.726-3.035c-.078-.3-.157-.613-.24-.947-.132-.537-.248-1.115-.37-1.727-.573-2.879-.909-8.7-4.466-10.4l-.206-.1c-.023-.01-.046-.019-.068-.03l-.136-.06-.08-.033-.122-.051-.084-.032-.118-.045-.086-.03-.118-.04-.088-.028-.12-.036-.089-.026-.125-.032-.088-.022-.136-.03-.083-.018-.166-.03-.062-.011c-.077-.012-.157-.024-.238-.034l-.049-.005c-.065-.008-.132-.016-.2-.022l-.093-.008-.17-.013-.109-.006c-.055,0-.111-.006-.167-.008-.04,0-.08,0-.121,0l-.174,0h-.42c-.1,0-.207,0-.315.006a11.487,11.487,0,0,0-1.255.108,3.278,3.278,0,0,0-.551.091c-.213.041-.336.072-.336.072l.039.017a3.623,3.623,0,0,0-.92.482c-.154.111-.293.215-.421.312a2.269,2.269,0,0,1-1.518.679,3.224,3.224,0,0,1-.394-.027.385.385,0,0,0-.38.2.394.394,0,0,0,.034.431,2.577,2.577,0,0,0,2.005.837,3.591,3.591,0,0,0,.576-.048,1.961,1.961,0,0,1-.818.214.382.382,0,0,0-.333.231.392.392,0,0,0,.056.406,2.2,2.2,0,0,0,1.718.642,4.147,4.147,0,0,0,.946-.117,1.363,1.363,0,0,1-.978.255.382.382,0,0,0-.376.188.392.392,0,0,0,.019.424,2.276,2.276,0,0,0,1.763.885h0a2.887,2.887,0,0,0,1.63-.571l.058-.04a1.249,1.249,0,0,1,.73-.273c.132-.01.266-.016.4-.016.062,0,.116,0,.165,0,.324,1.231.706,3.631,1.016,5.628l-9.371-4.228a1.545,1.545,0,0,0-.079-.8,1.519,1.519,0,0,0-.8-.85,1.485,1.485,0,0,0-.614-.132,1.5,1.5,0,0,0-.849.266,1.485,1.485,0,0,0-2.075-.217,1.806,1.806,0,0,0-.562-.089,1.851,1.851,0,0,0-1.691,1.112,1.889,1.889,0,0,0,.754,2.378,1.536,1.536,0,0,0,.893,1.292,1.481,1.481,0,0,0,.614.132c.015,0,.03,0,.044,0a1.6,1.6,0,0,0,.086.34,1.513,1.513,0,0,0,.8.85,1.477,1.477,0,0,0,1.394-.09l-.8,1.829a.39.39,0,0,0,.194.513l.484.219-.431.981-.484-.219a.379.379,0,0,0-.505.2l-1.079,2.455a.392.392,0,0,0-.007.3.385.385,0,0,0,.2.216l5.014,2.244a.382.382,0,0,0,.505-.2l1.079-2.455a.4.4,0,0,0,.008-.3.387.387,0,0,0-.2-.216l-.488-.219.425-.966.484.218a.382.382,0,0,0,.506-.2l.22-.5.97.438-.216.491a.4.4,0,0,0-.008.3.383.383,0,0,0,.2.216l.484.218-.431.981-.484-.218a.382.382,0,0,0-.506.2l-1.078,2.455a.4.4,0,0,0-.008.3.387.387,0,0,0,.2.216l5.014,2.244a.378.378,0,0,0,.155.033.384.384,0,0,0,.35-.231l1.078-2.455a.39.39,0,0,0-.194-.512l-.487-.22.425-.966.483.218a.373.373,0,0,0,.294.008.386.386,0,0,0,.213-.2l.862-1.964a8.566,8.566,0,0,0,3.3,5.258c1.761,1.119,4.524,1.287,6.015,1.287.356,0,.645-.009.843-.019a.364.364,0,0,0,.065.006h.028a8.938,8.938,0,0,0,.9-.112,2.724,2.724,0,0,0-.289.452,1.491,1.491,0,0,0-.5-.089,1.471,1.471,0,0,0-.614.133,1.506,1.506,0,0,0-.537.41,1.488,1.488,0,0,0-1.463-.134,1.507,1.507,0,0,0-.8.85,1.533,1.533,0,0,0-.086.34c-.015,0-.03,0-.044,0a1.477,1.477,0,0,0-.614.132,1.527,1.527,0,0,0-.389.254c-.681-1.983-2-3.089-3.751-3.089-.1,0-.2,0-.308.011a4.158,4.158,0,0,0-3.093,1.676,3.337,3.337,0,0,0-.613,1.893,3.516,3.516,0,0,0-1.6-.4,2.4,2.4,0,0,0-1.952.906,2.8,2.8,0,0,0-.248,3.072,4.975,4.975,0,0,0-1.415,1.39.391.391,0,0,0,.085.542,6.227,6.227,0,0,0,1.374.776,6.6,6.6,0,0,0-.627,1.255.39.39,0,0,0,.22.5,7.912,7.912,0,0,0,.956.293,26.386,26.386,0,0,0-2.708,1.717,11.132,11.132,0,0,0,.442-4,.387.387,0,0,0-.318-.361.381.381,0,0,0-.418.234,8.691,8.691,0,0,1-2.377,2.965,6.331,6.331,0,0,0,.225-.819,12.646,12.646,0,0,1,1.784-4.559,5.471,5.471,0,0,1,1.114-1.275.393.393,0,0,0,.121-.491.382.382,0,0,0-.46-.2,13.328,13.328,0,0,0-3.145,1.477,18.156,18.156,0,0,0-1.481-7.5.38.38,0,0,0-.473-.221.39.39,0,0,0-.255.461,8.437,8.437,0,0,1,.064,2.554,14.67,14.67,0,0,1-1.739,5.389.387.387,0,0,0-.1-.176,5.443,5.443,0,0,0-.79-.647c.938-1.584,1.576-4.144-.136-7.755a.382.382,0,0,0-.728.187,8.123,8.123,0,0,1-1,2.908c-.039-.21-.083-.424-.136-.648-1.392-5.9-.394-9.4-.384-9.437a.389.389,0,0,0-.206-.464.38.38,0,0,0-.483.141,20.231,20.231,0,0,0-3.293,8.306,18.12,18.12,0,0,1-.891-3.282.383.383,0,0,0-.748-.069c-.854,2.836-1.549,6.895-.019,10.135.114.243.235.467.359.674a6.337,6.337,0,0,0-.618.749.394.394,0,0,0-.066.218V477.74a.4.4,0,0,0,.012.093,6.936,6.936,0,0,0,.355,2.882,7.925,7.925,0,0,0,3.556,4.194,12.951,12.951,0,0,0,2.977,2.653c-1.57.139-3.147.212-4.7.212h0c-2.293,0-3.725-.158-3.739-.159a.381.381,0,0,0-.4.247.391.391,0,0,0,.136.455,16.756,16.756,0,0,0,8.347,3.453,10.048,10.048,0,0,0-3.045,4.258.4.4,0,0,0,.14.477.386.386,0,0,0,.213.065.372.372,0,0,0,.269-.115c.009-.008.889-.817,4.592-1.672a6.071,6.071,0,0,0,1.707-.656,17.6,17.6,0,0,0,3.438,2.548,23.59,23.59,0,0,0,5.467,2.678,2.636,2.636,0,0,0,.912.179,1.851,1.851,0,0,0,.806-.178,2.377,2.377,0,0,0,1.156-1.423,2.271,2.271,0,0,0-.351-2.379.406.406,0,0,0-.123-.08c-.924-.379-1.508-.631-2.412-1.092.055-.118.114-.239.179-.363a5.116,5.116,0,0,1,.39-.628l.04.021q.856.435,1.763.831a10.614,10.614,0,0,0,3.591,3.73,10.228,10.228,0,0,0-1.277.7,10.334,10.334,0,0,1-5.4,1.51c-.32,0-.509-.016-.51-.016a.382.382,0,0,0-.414.331.387.387,0,0,0,.3.436,37.749,37.749,0,0,0,7.36.829h0c.291,0,.572-.006.845-.015a9.223,9.223,0,0,0-1.667,4.688.387.387,0,0,0,.286.406.369.369,0,0,0,.1.013.385.385,0,0,0,.35-.228c.006-.015.72-1.527,3.629-2.835a15.78,15.78,0,0,0,2.49-1.382,19.173,19.173,0,0,0,5.99.842,3.447,3.447,0,0,0,2.318-1.572,6.317,6.317,0,0,1-.69,3.4,4.244,4.244,0,0,1-1.53-.193c-.166-.048-.339-.1-.548-.143a.472.472,0,0,0-.1-.009,2.532,2.532,0,0,0-1.552.635,1.361,1.361,0,0,0,0,1.995l0,0a.337.337,0,0,0,.042.033l.016.013.038.019.027.014h0a5.53,5.53,0,0,0,1.9.312,5.913,5.913,0,0,0,2.642-.616,6.122,6.122,0,0,0,2.808-2.841,6.12,6.12,0,0,0,2.809,2.841,5.909,5.909,0,0,0,2.642.616,5.53,5.53,0,0,0,1.9-.312.227.227,0,0,0,.031-.016l.034-.018.019-.014a.411.411,0,0,0,.039-.033l0,0a1.36,1.36,0,0,0,0-1.995,2.535,2.535,0,0,0-1.552-.635.468.468,0,0,0-.1.009c-.21.046-.382.1-.548.143a4.241,4.241,0,0,1-1.53.193,6.317,6.317,0,0,1-.691-3.4,3.45,3.45,0,0,0,2.319,1.572,19.173,19.173,0,0,0,5.964-.834,15.954,15.954,0,0,0,2.479,1.374c2.9,1.3,3.618,2.81,3.63,2.835a.382.382,0,0,0,.35.23h.007a.385.385,0,0,0,.379-.389.413.413,0,0,0-.009-.082,9.214,9.214,0,0,0-1.663-4.638c.273.009.555.015.844.015a37.745,37.745,0,0,0,7.361-.829.388.388,0,0,0-.109-.767s-.191.016-.511.016a10.334,10.334,0,0,1-5.4-1.51,10.149,10.149,0,0,0-1.184-.653,10.531,10.531,0,0,0,3.554-3.783q.9-.394,1.743-.823l.041-.021a5.149,5.149,0,0,1,.39.628c.066.124.124.245.179.363-.9.461-1.487.713-2.412,1.092a.393.393,0,0,0-.122.08,2.267,2.267,0,0,0-.352,2.379,2.376,2.376,0,0,0,1.157,1.423,1.843,1.843,0,0,0,.806.178,2.643,2.643,0,0,0,.912-.179,23.558,23.558,0,0,0,5.467-2.678,17.544,17.544,0,0,0,3.438-2.549,6.1,6.1,0,0,0,1.708.656c3.66.846,4.564,1.646,4.59,1.671a.382.382,0,0,0,.269.112h0a.39.39,0,0,0,.333-.583,10.009,10.009,0,0,0-3.026-4.214,16.763,16.763,0,0,0,8.347-3.453.39.39,0,0,0,.135-.455" transform="translate(-129.746 -418.368)" fill="#fff"/>
      </g>
    </g>
  </g>
</svg>
